<svg width="50" height="51" viewBox="0 0 50 51" fill="none" xmlns="http://www.w3.org/2000/svg">
<rect x="0.5" y="1" width="49" height="49" rx="5.5" stroke="#D895FF"/>
<path d="M30.7973 27.0804C30.8081 26.2458 31.0298 25.4274 31.4418 24.7014C31.8538 23.9755 32.4428 23.3655 33.1539 22.9284C32.7021 22.2832 32.1062 21.7523 31.4134 21.3777C30.7205 21.0032 29.9499 20.7953 29.1627 20.7707C27.4835 20.5944 25.8555 21.7755 24.9998 21.7755C24.1275 21.7755 22.81 20.7882 21.3913 20.8174C20.4736 20.847 19.5793 21.1139 18.7954 21.5919C18.0115 22.07 17.3649 22.7429 16.9184 23.5452C14.9844 26.8937 16.427 31.8147 18.2796 34.5213C19.2065 35.8467 20.2898 37.3271 21.7072 37.2746C23.0943 37.2171 23.6123 36.3901 25.2866 36.3901C26.9454 36.3901 27.4314 37.2746 28.8776 37.2412C30.366 37.2171 31.3038 35.91 32.1981 34.5721C32.8641 33.6277 33.3766 32.584 33.7166 31.4796C32.8518 31.1139 32.1139 30.5017 31.5948 29.7194C31.0757 28.9371 30.7983 28.0193 30.7973 27.0804V27.0804Z" fill="#F4F6F9"/>
<path d="M28.0657 18.9906C28.8772 18.0164 29.277 16.7642 29.1802 15.5C27.9404 15.6302 26.7951 16.2228 25.9726 17.1596C25.5705 17.6173 25.2625 18.1497 25.0663 18.7265C24.87 19.3033 24.7894 19.913 24.8289 20.521C25.4491 20.5274 26.0626 20.393 26.6232 20.1279C27.1839 19.8628 27.6771 19.4739 28.0657 18.9906Z" fill="#F4F6F9"/>
</svg>
