<svg width="120" height="40" viewBox="0 0 120 40" fill="none" xmlns="http://www.w3.org/2000/svg">
<path d="M110.738 0.50013H110.303H9.70265H110.738ZM110.738 0.50013C110.954 0.500323 111.17 0.500802 111.384 0.501992L111.387 0.002M110.738 0.50013H110.803V0.000196401C110.998 0.000425702 111.193 0.000922715 111.387 0.002M111.387 0.002C111.635 0.00359168 111.889 0.00778841 112.14 0.0119309C112.196 0.0128635 112.253 0.0137933 112.309 0.01469C112.979 0.0221378 113.648 0.0812328 114.309 0.19145M111.387 0.002L111.384 0.50199C111.629 0.503564 111.88 0.507708 112.131 0.511847C112.187 0.512784 112.244 0.51372 112.301 0.514632L112.303 0.514659C112.947 0.521819 113.59 0.578607 114.226 0.684519M114.309 0.19145L114.225 0.684367C114.225 0.684418 114.225 0.684469 114.226 0.684519M114.309 0.19145C114.972 0.30437 115.615 0.515697 116.217 0.81845L114.309 0.19145ZM114.226 0.684519C114.839 0.78903 115.434 0.984402 115.99 1.2642M114.226 0.684519L115.99 1.2642M115.99 1.2642C117.098 1.83384 118 2.73613 118.57 3.84445C118.848 4.39814 119.041 4.99094 119.141 5.60255L119.142 5.60465C119.249 6.24118 119.309 6.88481 119.32 7.5302C119.324 7.83305 119.324 8.1374 119.324 8.44447L119.324 8.45523C119.332 8.81125 119.332 9.16913 119.332 9.53626V30.4649C119.332 30.835 119.332 31.191 119.324 31.548L119.324 31.548V31.5587C119.324 31.8695 119.324 32.167 119.32 32.4738C119.309 33.1192 119.249 33.7629 119.142 34.3994L119.141 34.4018C119.041 35.0135 118.849 35.6064 118.57 36.1601C118.287 36.7095 117.92 37.211 117.482 37.6463L117.479 37.6492C117.044 38.0878 116.542 38.4538 115.992 38.7335C115.435 39.0144 114.84 39.2112 114.226 39.3176C113.59 39.4226 112.947 39.4794 112.302 39.4874L112.297 39.4876C111.996 39.4943 111.687 39.4981 111.387 39.4981L111.384 39.4981C111.026 39.5001 110.662 39.5001 110.303 39.5001H9.70265C9.33575 39.5001 8.97478 39.5001 8.61065 39.4981H8.60792C8.30603 39.4981 8.00605 39.4943 7.69997 39.4875L7.69556 39.4875C7.04982 39.479 6.40562 39.4222 5.76836 39.3176C5.15661 39.2122 4.56416 39.0155 4.01082 38.7341L4.01025 38.7339C3.45883 38.4543 2.95588 38.0881 2.52059 37.6491L2.52061 37.6491L2.51669 37.6452C2.07779 37.2122 1.71194 36.7109 1.43337 36.1609L1.43314 36.1605C1.15199 35.6068 0.957214 35.0133 0.855577 34.4007L0.855387 34.3996C0.748335 33.7634 0.690728 33.1198 0.683084 32.4747H0.683165L0.682896 32.4657C0.67669 32.258 0.674318 32.0579 0.671866 31.8511C0.670718 31.7543 0.669553 31.656 0.667969 31.5548V8.44844C0.669575 8.34704 0.67075 8.24764 0.671912 8.1494C0.674347 7.94341 0.676723 7.74249 0.68289 7.53874L0.682975 7.53874L0.683084 7.52953C0.690726 6.88439 0.748333 6.24082 0.855388 5.60457L0.855532 5.60371C0.957468 4.99135 1.15226 4.39814 1.43319 3.84456L1.43362 3.8437C1.71252 3.29151 2.07858 2.78786 2.51771 2.35213L2.51914 2.35071C2.95681 1.91292 3.46025 1.54627 4.0112 1.26403C4.56423 0.983685 5.15639 0.788365 5.76769 0.684667C6.40483 0.579183 7.04908 0.522395 7.69485 0.514795L7.69485 0.514799L7.69688 0.514767C7.76183 0.51374 7.82629 0.512677 7.89038 0.511619L115.99 1.2642ZM0.362319 34.4825C0.250982 33.8209 0.19107 33.1516 0.183119 32.4806C0.176779 32.2684 0.174313 32.0608 0.171827 31.8515C0.170675 31.7545 0.169518 31.6571 0.167969 31.5587L0.362319 34.4825ZM0.362319 34.4825C0.472305 35.1455 0.683077 35.7877 0.987319 36.3868L0.362319 34.4825Z" stroke="url(#paint0_linear_1822_15941)"/>
<path d="M24.9368 20.3007C24.9476 19.466 25.1693 18.6477 25.5813 17.9217C25.9933 17.1957 26.5823 16.5858 27.2934 16.1486C26.8417 15.5035 26.2457 14.9725 25.5529 14.598C24.8601 14.2234 24.0894 14.0156 23.3022 13.991C21.623 13.8147 19.995 14.9958 19.1393 14.9958C18.2671 14.9958 16.9496 14.0085 15.5308 14.0376C14.6132 14.0673 13.7188 14.3341 12.9349 14.8122C12.1511 15.2903 11.5044 15.9632 11.0579 16.7655C9.12392 20.1139 10.5665 25.035 12.4191 27.7416C13.346 29.0669 14.4293 30.5474 15.8467 30.4949C17.2338 30.4374 17.7518 29.6104 19.4261 29.6104C21.0849 29.6104 21.5709 30.4949 23.0171 30.4615C24.5055 30.4374 25.4433 29.1303 26.3377 27.7924C27.0036 26.848 27.5161 25.8043 27.8561 24.6999C26.9914 24.3341 26.2535 23.722 25.7343 22.9397C25.2152 22.1574 24.9378 21.2396 24.9368 20.3007Z" fill="url(#paint1_linear_1822_15941)"/>
<path d="M22.2052 12.2109C23.0167 11.2367 23.4165 9.98451 23.3197 8.72028C22.0799 8.8505 20.9346 9.44306 20.1121 10.3799C19.71 10.8376 19.402 11.37 19.2058 11.9468C19.0095 12.5235 18.9289 13.1333 18.9684 13.7413C19.5886 13.7477 20.2021 13.6133 20.7627 13.3482C21.3234 13.0831 21.8166 12.6942 22.2052 12.2109Z" fill="url(#paint2_linear_1822_15941)"/>
<path d="M42.4702 27.1397H37.7368L36.6001 30.4961H34.5952L39.0786 18.0781H41.1616L45.645 30.4961H43.606L42.4702 27.1397ZM38.2271 25.5908H41.9791L40.1295 20.1436H40.0777L38.2271 25.5908Z" fill="url(#paint3_linear_1822_15941)"/>
<path d="M55.3277 25.9697C55.3277 28.7832 53.8218 30.5908 51.5493 30.5908C50.9737 30.6209 50.4012 30.4883 49.8974 30.2082C49.3936 29.9281 48.9789 29.5117 48.7007 29.0068H48.6577V33.4912H46.7993V21.4424H48.5982V22.9483H48.6323C48.9233 22.4458 49.345 22.0316 49.8527 21.7498C50.3603 21.4679 50.9348 21.3289 51.5152 21.3477C53.813 21.3477 55.3277 23.1641 55.3277 25.9697ZM53.4175 25.9697C53.4175 24.1367 52.4702 22.9317 51.0249 22.9317C49.605 22.9317 48.6499 24.1621 48.6499 25.9697C48.6499 27.794 49.605 29.0156 51.0249 29.0156C52.4702 29.0156 53.4175 27.8194 53.4175 25.9697Z" fill="url(#paint4_linear_1822_15941)"/>
<path d="M65.2925 25.9697C65.2925 28.7832 63.7866 30.5908 61.5142 30.5908C60.9385 30.6209 60.366 30.4883 59.8622 30.2082C59.3584 29.9281 58.9437 29.5117 58.6655 29.0068H58.6225V33.4912H56.7641V21.4424H58.563V22.9483H58.5971C58.8881 22.4458 59.3098 22.0316 59.8175 21.7498C60.3251 21.4679 60.8996 21.329 61.48 21.3477C63.7778 21.3477 65.2925 23.1641 65.2925 25.9697ZM63.3823 25.9697C63.3823 24.1367 62.4351 22.9317 60.9897 22.9317C59.5698 22.9317 58.6147 24.1621 58.6147 25.9697C58.6147 27.794 59.5698 29.0156 60.9897 29.0156C62.4351 29.0156 63.3823 27.8194 63.3823 25.9697Z" fill="url(#paint5_linear_1822_15941)"/>
<path d="M71.8784 27.0361C72.0161 28.2676 73.2124 29.0761 74.8472 29.0761C76.4136 29.0761 77.5405 28.2676 77.5405 27.1572C77.5405 26.1933 76.8608 25.6162 75.2515 25.2207L73.6421 24.833C71.3618 24.2822 70.3032 23.2158 70.3032 21.4853C70.3032 19.3427 72.1704 17.8711 74.8218 17.8711C77.4458 17.8711 79.2446 19.3427 79.3052 21.4853H77.4292C77.3169 20.2461 76.2925 19.498 74.7954 19.498C73.2983 19.498 72.2739 20.2549 72.2739 21.3564C72.2739 22.2343 72.9282 22.7509 74.5288 23.1464L75.897 23.4824C78.4448 24.0849 79.5034 25.1084 79.5034 26.9247C79.5034 29.248 77.6528 30.7031 74.7095 30.7031C71.9555 30.7031 70.0962 29.2822 69.9761 27.0361L71.8784 27.0361Z" fill="url(#paint6_linear_1822_15941)"/>
<path d="M83.5142 19.2998V21.4424H85.2358V22.9141H83.5142V27.9053C83.5142 28.6807 83.8589 29.042 84.6157 29.042C84.8201 29.0384 85.0242 29.0241 85.2271 28.999V30.4619C84.8868 30.5255 84.5409 30.5543 84.1948 30.5478C82.3618 30.5478 81.647 29.8594 81.647 28.1035V22.9141H80.3306V21.4424H81.647V19.2998H83.5142Z" fill="url(#paint7_linear_1822_15941)"/>
<path d="M86.233 25.9697C86.233 23.1211 87.9107 21.3311 90.5269 21.3311C93.1519 21.3311 94.8218 23.1211 94.8218 25.9697C94.8218 28.8262 93.1607 30.6084 90.5269 30.6084C87.8941 30.6084 86.233 28.8262 86.233 25.9697ZM92.9283 25.9697C92.9283 24.0156 92.0328 22.8623 90.5269 22.8623C89.021 22.8623 88.1265 24.0244 88.1265 25.9697C88.1265 27.9317 89.021 29.0762 90.5269 29.0762C92.0328 29.0762 92.9283 27.9317 92.9283 25.9697Z" fill="url(#paint8_linear_1822_15941)"/>
<path d="M96.354 21.4424H98.1265V22.9834H98.1695C98.2894 22.5021 98.5714 22.0768 98.9679 21.7789C99.3645 21.481 99.8516 21.3287 100.347 21.3477C100.561 21.3469 100.775 21.3702 100.984 21.417V23.1553C100.714 23.0727 100.432 23.0347 100.149 23.043C99.879 23.032 99.6098 23.0796 99.36 23.1825C99.1101 23.2854 98.8855 23.4411 98.7015 23.639C98.5175 23.8369 98.3786 24.0723 98.2942 24.3289C98.2097 24.5856 98.1818 24.8575 98.2124 25.126V30.4961H96.354L96.354 21.4424Z" fill="url(#paint9_linear_1822_15941)"/>
<path d="M109.552 27.8369C109.302 29.4805 107.702 30.6084 105.654 30.6084C103.02 30.6084 101.385 28.8438 101.385 26.0127C101.385 23.1729 103.029 21.3311 105.576 21.3311C108.081 21.3311 109.656 23.0518 109.656 25.7969V26.4336H103.261V26.5459C103.232 26.8791 103.273 27.2148 103.384 27.5306C103.494 27.8464 103.67 28.1352 103.9 28.3778C104.131 28.6203 104.41 28.8111 104.72 28.9374C105.029 29.0637 105.363 29.1227 105.697 29.1104C106.136 29.1515 106.577 29.0498 106.953 28.8203C107.33 28.5909 107.623 28.246 107.788 27.8369L109.552 27.8369ZM103.27 25.1348H107.796C107.813 24.8352 107.768 24.5354 107.663 24.2542C107.558 23.9729 107.397 23.7164 107.188 23.5006C106.98 23.2849 106.729 23.1145 106.451 23.0003C106.174 22.8861 105.876 22.8305 105.576 22.8369C105.273 22.8351 104.973 22.8933 104.693 23.008C104.413 23.1227 104.158 23.2918 103.944 23.5054C103.73 23.7191 103.56 23.9731 103.444 24.2527C103.328 24.5324 103.269 24.8321 103.27 25.1348Z" fill="url(#paint10_linear_1822_15941)"/>
<path d="M37.9942 8.73101C38.3838 8.70305 38.7747 8.76191 39.1388 8.90334C39.503 9.04478 39.8311 9.26526 40.0997 9.54888C40.3683 9.83251 40.5706 10.1722 40.692 10.5435C40.8134 10.9147 40.8509 11.3083 40.8018 11.6959C40.8018 13.6021 39.7715 14.6978 37.9942 14.6978H35.8389V8.73101H37.9942ZM36.7656 13.854H37.8906C38.169 13.8707 38.4476 13.825 38.7062 13.7204C38.9647 13.6158 39.1967 13.4548 39.3852 13.2493C39.5737 13.0437 39.714 12.7987 39.7958 12.5321C39.8777 12.2655 39.8991 11.9839 39.8584 11.708C39.8961 11.4332 39.8726 11.1534 39.7894 10.8887C39.7063 10.6241 39.5657 10.3811 39.3776 10.1771C39.1896 9.97321 38.9587 9.81341 38.7016 9.70917C38.4446 9.60493 38.1676 9.55885 37.8906 9.57422H36.7656V13.854Z" fill="url(#paint11_linear_1822_15941)"/>
<path d="M41.8486 12.4444C41.8203 12.1484 41.8542 11.8499 41.948 11.5678C42.0419 11.2857 42.1936 11.0264 42.3936 10.8064C42.5935 10.5864 42.8372 10.4107 43.1091 10.2904C43.3809 10.1701 43.6749 10.108 43.9722 10.108C44.2694 10.108 44.5634 10.1701 44.8353 10.2904C45.1071 10.4107 45.3508 10.5864 45.5508 10.8064C45.7507 11.0264 45.9025 11.2857 45.9963 11.5678C46.0902 11.8499 46.124 12.1484 46.0957 12.4444C46.1246 12.7406 46.0911 13.0396 45.9975 13.3221C45.9039 13.6046 45.7523 13.8644 45.5523 14.0848C45.3523 14.3053 45.1084 14.4814 44.8363 14.6019C44.5641 14.7225 44.2698 14.7847 43.9722 14.7847C43.6746 14.7847 43.3802 14.7225 43.1081 14.6019C42.836 14.4814 42.5921 14.3053 42.3921 14.0848C42.1921 13.8644 42.0404 13.6046 41.9468 13.3221C41.8532 13.0396 41.8198 12.7406 41.8486 12.4444ZM45.1816 12.4444C45.1816 11.4683 44.7432 10.8975 43.9736 10.8975C43.2012 10.8975 42.7666 11.4683 42.7666 12.4444C42.7666 13.4283 43.2012 13.9947 43.9736 13.9947C44.7432 13.9946 45.1816 13.4243 45.1816 12.4444Z" fill="url(#paint12_linear_1822_15941)"/>
<path d="M51.7412 14.6978H50.8194L49.8887 11.3814H49.8184L48.8916 14.6978H47.9785L46.7373 10.1948H47.6387L48.4453 13.6308H48.5117L49.4375 10.1948H50.2901L51.2158 13.6308H51.2862L52.0889 10.1948H52.9776L51.7412 14.6978Z" fill="url(#paint13_linear_1822_15941)"/>
<path d="M54.0215 10.1948H54.877V10.9102H54.9434C55.056 10.6532 55.246 10.4379 55.4869 10.2941C55.7278 10.1503 56.0075 10.0852 56.2871 10.1079C56.5062 10.0914 56.7262 10.1245 56.9308 10.2046C57.1354 10.2847 57.3194 10.4098 57.4691 10.5706C57.6187 10.7315 57.7303 10.9239 57.7955 11.1337C57.8607 11.3436 57.8779 11.5654 57.8457 11.7827V14.6977H56.957V12.0059C56.957 11.2822 56.6426 10.9224 55.9854 10.9224C55.8366 10.9154 55.6881 10.9408 55.55 10.9966C55.412 11.0524 55.2876 11.1374 55.1855 11.2458C55.0834 11.3542 55.0059 11.4834 54.9584 11.6245C54.9109 11.7657 54.8944 11.9154 54.9102 12.0635V14.6978H54.0215L54.0215 10.1948Z" fill="url(#paint14_linear_1822_15941)"/>
<path d="M59.2617 8.43701H60.1504V14.6978H59.2617V8.43701Z" fill="url(#paint15_linear_1822_15941)"/>
<path d="M61.3857 12.4444C61.3575 12.1484 61.3913 11.8498 61.4852 11.5677C61.5791 11.2857 61.7308 11.0263 61.9308 10.8063C62.1308 10.5863 62.3745 10.4106 62.6464 10.2903C62.9182 10.17 63.2122 10.1079 63.5095 10.1079C63.8068 10.1079 64.1008 10.17 64.3727 10.2903C64.6446 10.4106 64.8883 10.5863 65.0883 10.8063C65.2882 11.0263 65.44 11.2857 65.5339 11.5677C65.6277 11.8498 65.6616 12.1484 65.6333 12.4444C65.6621 12.7406 65.6286 13.0396 65.535 13.3221C65.4414 13.6046 65.2897 13.8644 65.0897 14.0848C64.8897 14.3052 64.6458 14.4814 64.3736 14.6019C64.1015 14.7224 63.8072 14.7847 63.5095 14.7847C63.2119 14.7847 62.9176 14.7224 62.6454 14.6019C62.3733 14.4814 62.1294 14.3052 61.9294 14.0848C61.7294 13.8644 61.5777 13.6046 61.484 13.3221C61.3904 13.0396 61.3569 12.7406 61.3857 12.4444ZM64.7187 12.4444C64.7187 11.4683 64.2803 10.8975 63.5107 10.8975C62.7383 10.8975 62.3037 11.4683 62.3037 12.4444C62.3037 13.4283 62.7383 13.9947 63.5107 13.9947C64.2803 13.9946 64.7187 13.4243 64.7187 12.4444Z" fill="url(#paint16_linear_1822_15941)"/>
<path d="M66.5689 13.4243C66.5689 12.6138 67.1724 12.1465 68.2437 12.0801L69.4634 12.0098V11.6211C69.4634 11.1455 69.1489 10.877 68.5415 10.877C68.0454 10.877 67.7017 11.0591 67.603 11.3775H66.7427C66.8335 10.604 67.5611 10.1079 68.5825 10.1079C69.7114 10.1079 70.3482 10.6699 70.3482 11.6211V14.6978H69.4927V14.065H69.4224C69.2797 14.292 69.0793 14.477 68.8416 14.6012C68.604 14.7254 68.3377 14.7843 68.0698 14.772C67.8808 14.7916 67.6898 14.7715 67.509 14.7128C67.3282 14.6541 67.1618 14.5581 67.0204 14.4312C66.8789 14.3042 66.7657 14.149 66.6879 13.9756C66.6102 13.8022 66.5696 13.6144 66.5689 13.4243ZM69.4634 13.0396V12.6631L68.3638 12.7334C67.7437 12.7749 67.4624 12.9859 67.4624 13.3828C67.4624 13.7881 67.814 14.0239 68.2974 14.0239C68.4391 14.0383 68.5821 14.024 68.7181 13.9819C68.8541 13.9398 68.9803 13.8708 69.0891 13.7789C69.1979 13.6871 69.2871 13.5743 69.3514 13.4473C69.4157 13.3203 69.4538 13.1816 69.4634 13.0396Z" fill="url(#paint17_linear_1822_15941)"/>
<path d="M71.5161 12.4444C71.5161 11.0215 72.2476 10.1201 73.3853 10.1201C73.6667 10.1072 73.946 10.1746 74.1905 10.3145C74.435 10.4544 74.6347 10.661 74.7661 10.9101H74.8325V8.43701H75.7212V14.6978H74.8696V13.9863H74.7993C74.6577 14.2338 74.4511 14.4378 74.2019 14.5763C73.9526 14.7148 73.6702 14.7825 73.3853 14.772C72.2398 14.772 71.5161 13.8706 71.5161 12.4444ZM72.4341 12.4444C72.4341 13.3994 72.8843 13.9741 73.6373 13.9741C74.3863 13.9741 74.8492 13.3911 74.8492 12.4483C74.8492 11.5098 74.3814 10.9185 73.6373 10.9185C72.8892 10.9185 72.4341 11.4971 72.4341 12.4444Z" fill="url(#paint18_linear_1822_15941)"/>
<path d="M79.398 12.4444C79.3697 12.1484 79.4035 11.8499 79.4973 11.5678C79.5912 11.2857 79.7429 11.0264 79.9429 10.8064C80.1428 10.5864 80.3865 10.4107 80.6584 10.2904C80.9302 10.1701 81.2242 10.108 81.5215 10.108C81.8188 10.108 82.1128 10.1701 82.3846 10.2904C82.6565 10.4107 82.9002 10.5864 83.1001 10.8064C83.3 11.0264 83.4518 11.2857 83.5456 11.5678C83.6395 11.8499 83.6733 12.1484 83.645 12.4444C83.6739 12.7406 83.6404 13.0396 83.5468 13.3221C83.4532 13.6046 83.3016 13.8644 83.1016 14.0848C82.9016 14.3053 82.6577 14.4814 82.3856 14.6019C82.1134 14.7225 81.8191 14.7847 81.5215 14.7847C81.2239 14.7847 80.9295 14.7225 80.6574 14.6019C80.3853 14.4814 80.1414 14.3053 79.9414 14.0848C79.7414 13.8644 79.5897 13.6046 79.4962 13.3221C79.4026 13.0396 79.3691 12.7406 79.398 12.4444ZM82.731 12.4444C82.731 11.4683 82.2925 10.8975 81.523 10.8975C80.7505 10.8975 80.316 11.4683 80.316 12.4444C80.316 13.4283 80.7505 13.9947 81.523 13.9947C82.2925 13.9946 82.731 13.4243 82.731 12.4444Z" fill="url(#paint19_linear_1822_15941)"/>
<path d="M84.8374 10.1948H85.6929V10.9102H85.7593C85.8719 10.6532 86.0619 10.4379 86.3028 10.2941C86.5437 10.1503 86.8234 10.0852 87.103 10.1079C87.3221 10.0914 87.5421 10.1245 87.7467 10.2046C87.9513 10.2847 88.1353 10.4098 88.285 10.5706C88.4347 10.7315 88.5462 10.9239 88.6114 11.1337C88.6766 11.3436 88.6938 11.5654 88.6616 11.7827V14.6977H87.773V12.0059C87.773 11.2822 87.4585 10.9224 86.8013 10.9224C86.6525 10.9154 86.504 10.9408 86.366 10.9966C86.2279 11.0524 86.1036 11.1374 86.0014 11.2458C85.8993 11.3542 85.8218 11.4834 85.7743 11.6245C85.7268 11.7657 85.7103 11.9154 85.7261 12.0635V14.6978H84.8374V10.1948Z" fill="url(#paint20_linear_1822_15941)"/>
<path d="M93.6831 9.07374V10.2153H94.6587V10.9639H93.6831V13.2793C93.6831 13.751 93.8775 13.9575 94.3198 13.9575C94.4331 13.9572 94.5462 13.9503 94.6587 13.937V14.6773C94.4991 14.7058 94.3374 14.721 94.1753 14.7227C93.187 14.7227 92.7935 14.375 92.7935 13.5068V10.9638H92.0786V10.2153H92.7935V9.07374H93.6831Z" fill="url(#paint21_linear_1822_15941)"/>
<path d="M95.8726 8.43701H96.7534V10.9185H96.8237C96.9419 10.6591 97.1371 10.4425 97.3828 10.2982C97.6285 10.1539 97.9127 10.0888 98.1967 10.1118C98.4147 10.1 98.6326 10.1364 98.8349 10.2184C99.0371 10.3004 99.2188 10.4261 99.367 10.5864C99.5151 10.7468 99.626 10.9378 99.6918 11.146C99.7575 11.3541 99.7766 11.5742 99.7475 11.7905V14.6978H98.858V12.0098C98.858 11.2905 98.523 10.9263 97.8951 10.9263C97.7423 10.9137 97.5887 10.9347 97.4449 10.9878C97.3011 11.0408 97.1707 11.1247 97.0627 11.2334C96.9547 11.3421 96.8718 11.4732 96.8197 11.6173C96.7677 11.7614 96.7477 11.9152 96.7613 12.0679V14.6977H95.8726L95.8726 8.43701Z" fill="url(#paint22_linear_1822_15941)"/>
<path d="M104.929 13.4819C104.808 13.8935 104.547 14.2495 104.19 14.4876C103.833 14.7258 103.404 14.8309 102.978 14.7847C102.681 14.7925 102.387 14.7357 102.114 14.6182C101.842 14.5006 101.598 14.3252 101.4 14.1041C101.202 13.8829 101.055 13.6214 100.968 13.3375C100.881 13.0537 100.857 12.7544 100.898 12.4605C100.858 12.1656 100.883 11.8656 100.969 11.581C101.056 11.2963 101.202 11.0335 101.399 10.8105C101.596 10.5874 101.839 10.4092 102.11 10.288C102.382 10.1668 102.677 10.1054 102.974 10.1079C104.227 10.1079 104.983 10.9639 104.983 12.3779V12.688H101.803V12.7378C101.789 12.9031 101.81 13.0694 101.864 13.2261C101.918 13.3829 102.005 13.5266 102.118 13.6481C102.23 13.7695 102.367 13.866 102.52 13.9314C102.672 13.9968 102.837 14.0297 103.002 14.0278C103.215 14.0533 103.43 14.0151 103.621 13.9178C103.812 13.8206 103.969 13.6689 104.074 13.4819L104.929 13.4819ZM101.803 12.0308H104.078C104.089 11.8796 104.068 11.7278 104.017 11.5851C103.966 11.4424 103.886 11.3119 103.782 11.2021C103.677 11.0922 103.551 11.0054 103.411 10.9472C103.271 10.8891 103.121 10.8608 102.969 10.8643C102.816 10.8623 102.663 10.8912 102.521 10.9491C102.378 11.0071 102.249 11.0929 102.14 11.2017C102.032 11.3104 101.946 11.4397 101.888 11.5821C101.83 11.7245 101.801 11.8771 101.803 12.0308Z" fill="url(#paint23_linear_1822_15941)"/>
<defs>
<linearGradient id="paint0_linear_1822_15941" x1="0.167969" y1="0" x2="121.938" y2="31.9813" gradientUnits="userSpaceOnUse">
<stop stop-color="#FF82D4"/>
<stop offset="1" stop-color="#1B1378"/>
</linearGradient>
<linearGradient id="paint1_linear_1822_15941" x1="10.1395" y1="8.43701" x2="106.656" y2="42.0934" gradientUnits="userSpaceOnUse">
<stop stop-color="#FF82D4"/>
<stop offset="1" stop-color="#1B1378"/>
</linearGradient>
<linearGradient id="paint2_linear_1822_15941" x1="10.1395" y1="8.43701" x2="106.656" y2="42.0934" gradientUnits="userSpaceOnUse">
<stop stop-color="#FF82D4"/>
<stop offset="1" stop-color="#1B1378"/>
</linearGradient>
<linearGradient id="paint3_linear_1822_15941" x1="10.1395" y1="8.43701" x2="106.656" y2="42.0934" gradientUnits="userSpaceOnUse">
<stop stop-color="#FF82D4"/>
<stop offset="1" stop-color="#1B1378"/>
</linearGradient>
<linearGradient id="paint4_linear_1822_15941" x1="10.1395" y1="8.43701" x2="106.656" y2="42.0934" gradientUnits="userSpaceOnUse">
<stop stop-color="#FF82D4"/>
<stop offset="1" stop-color="#1B1378"/>
</linearGradient>
<linearGradient id="paint5_linear_1822_15941" x1="10.1395" y1="8.43701" x2="106.656" y2="42.0934" gradientUnits="userSpaceOnUse">
<stop stop-color="#FF82D4"/>
<stop offset="1" stop-color="#1B1378"/>
</linearGradient>
<linearGradient id="paint6_linear_1822_15941" x1="10.1395" y1="8.43701" x2="106.656" y2="42.0934" gradientUnits="userSpaceOnUse">
<stop stop-color="#FF82D4"/>
<stop offset="1" stop-color="#1B1378"/>
</linearGradient>
<linearGradient id="paint7_linear_1822_15941" x1="10.1395" y1="8.43701" x2="106.656" y2="42.0934" gradientUnits="userSpaceOnUse">
<stop stop-color="#FF82D4"/>
<stop offset="1" stop-color="#1B1378"/>
</linearGradient>
<linearGradient id="paint8_linear_1822_15941" x1="10.1395" y1="8.43701" x2="106.656" y2="42.0934" gradientUnits="userSpaceOnUse">
<stop stop-color="#FF82D4"/>
<stop offset="1" stop-color="#1B1378"/>
</linearGradient>
<linearGradient id="paint9_linear_1822_15941" x1="10.1395" y1="8.43701" x2="106.656" y2="42.0934" gradientUnits="userSpaceOnUse">
<stop stop-color="#FF82D4"/>
<stop offset="1" stop-color="#1B1378"/>
</linearGradient>
<linearGradient id="paint10_linear_1822_15941" x1="10.1395" y1="8.43701" x2="106.656" y2="42.0934" gradientUnits="userSpaceOnUse">
<stop stop-color="#FF82D4"/>
<stop offset="1" stop-color="#1B1378"/>
</linearGradient>
<linearGradient id="paint11_linear_1822_15941" x1="10.1395" y1="8.43701" x2="106.656" y2="42.0934" gradientUnits="userSpaceOnUse">
<stop stop-color="#FF82D4"/>
<stop offset="1" stop-color="#1B1378"/>
</linearGradient>
<linearGradient id="paint12_linear_1822_15941" x1="10.1395" y1="8.43701" x2="106.656" y2="42.0934" gradientUnits="userSpaceOnUse">
<stop stop-color="#FF82D4"/>
<stop offset="1" stop-color="#1B1378"/>
</linearGradient>
<linearGradient id="paint13_linear_1822_15941" x1="10.1395" y1="8.43701" x2="106.656" y2="42.0934" gradientUnits="userSpaceOnUse">
<stop stop-color="#FF82D4"/>
<stop offset="1" stop-color="#1B1378"/>
</linearGradient>
<linearGradient id="paint14_linear_1822_15941" x1="10.1395" y1="8.43701" x2="106.656" y2="42.0934" gradientUnits="userSpaceOnUse">
<stop stop-color="#FF82D4"/>
<stop offset="1" stop-color="#1B1378"/>
</linearGradient>
<linearGradient id="paint15_linear_1822_15941" x1="10.1395" y1="8.43701" x2="106.656" y2="42.0934" gradientUnits="userSpaceOnUse">
<stop stop-color="#FF82D4"/>
<stop offset="1" stop-color="#1B1378"/>
</linearGradient>
<linearGradient id="paint16_linear_1822_15941" x1="10.1395" y1="8.43701" x2="106.656" y2="42.0934" gradientUnits="userSpaceOnUse">
<stop stop-color="#FF82D4"/>
<stop offset="1" stop-color="#1B1378"/>
</linearGradient>
<linearGradient id="paint17_linear_1822_15941" x1="10.1395" y1="8.43701" x2="106.656" y2="42.0934" gradientUnits="userSpaceOnUse">
<stop stop-color="#FF82D4"/>
<stop offset="1" stop-color="#1B1378"/>
</linearGradient>
<linearGradient id="paint18_linear_1822_15941" x1="10.1395" y1="8.43701" x2="106.656" y2="42.0934" gradientUnits="userSpaceOnUse">
<stop stop-color="#FF82D4"/>
<stop offset="1" stop-color="#1B1378"/>
</linearGradient>
<linearGradient id="paint19_linear_1822_15941" x1="10.1395" y1="8.43701" x2="106.656" y2="42.0934" gradientUnits="userSpaceOnUse">
<stop stop-color="#FF82D4"/>
<stop offset="1" stop-color="#1B1378"/>
</linearGradient>
<linearGradient id="paint20_linear_1822_15941" x1="10.1395" y1="8.43701" x2="106.656" y2="42.0934" gradientUnits="userSpaceOnUse">
<stop stop-color="#FF82D4"/>
<stop offset="1" stop-color="#1B1378"/>
</linearGradient>
<linearGradient id="paint21_linear_1822_15941" x1="10.1395" y1="8.43701" x2="106.656" y2="42.0934" gradientUnits="userSpaceOnUse">
<stop stop-color="#FF82D4"/>
<stop offset="1" stop-color="#1B1378"/>
</linearGradient>
<linearGradient id="paint22_linear_1822_15941" x1="10.1395" y1="8.43701" x2="106.656" y2="42.0934" gradientUnits="userSpaceOnUse">
<stop stop-color="#FF82D4"/>
<stop offset="1" stop-color="#1B1378"/>
</linearGradient>
<linearGradient id="paint23_linear_1822_15941" x1="10.1395" y1="8.43701" x2="106.656" y2="42.0934" gradientUnits="userSpaceOnUse">
<stop stop-color="#FF82D4"/>
<stop offset="1" stop-color="#1B1378"/>
</linearGradient>
</defs>
</svg>
