<svg width="50" height="51" viewBox="0 0 50 51" fill="none" xmlns="http://www.w3.org/2000/svg">
<rect x="0.5" y="1" width="49" height="49" rx="5.5" stroke="#76E234"/>
<path d="M30.7973 27.0804C30.8081 26.2457 31.0298 25.4273 31.4418 24.7014C31.8538 23.9754 32.4428 23.3655 33.1539 22.9283C32.7021 22.2831 32.1062 21.7522 31.4134 21.3776C30.7205 21.0031 29.9499 20.7952 29.1627 20.7706C27.4835 20.5944 25.8555 21.7754 24.9998 21.7754C24.1275 21.7754 22.81 20.7881 21.3913 20.8173C20.4736 20.847 19.5793 21.1138 18.7954 21.5919C18.0115 22.0699 17.3649 22.7429 16.9184 23.5452C14.9844 26.8936 16.427 31.8146 18.2796 34.5213C19.2065 35.8466 20.2898 37.3271 21.7072 37.2746C23.0943 37.217 23.6123 36.3901 25.2866 36.3901C26.9454 36.3901 27.4314 37.2746 28.8776 37.2412C30.366 37.217 31.3038 35.9099 32.1981 34.572C32.8641 33.6277 33.3766 32.584 33.7166 31.4795C32.8518 31.1138 32.1139 30.5016 31.5948 29.7193C31.0757 28.937 30.7983 28.0192 30.7973 27.0804Z" fill="#F4F6F9"/>
<path d="M28.0656 18.9906C28.8772 18.0164 29.277 16.7642 29.1802 15.5C27.9403 15.6302 26.7951 16.2228 25.9726 17.1596C25.5704 17.6173 25.2624 18.1497 25.0662 18.7265C24.87 19.3033 24.7893 19.913 24.8289 20.521C25.449 20.5274 26.0625 20.393 26.6232 20.1279C27.1838 19.8628 27.6771 19.4739 28.0656 18.9906Z" fill="#F4F6F9"/>
</svg>
