<svg width="163" height="49" viewBox="0 0 163 49" fill="none" xmlns="http://www.w3.org/2000/svg">
<path d="M156.235 48.3167H6.23486C2.93486 48.3167 0.234863 45.6167 0.234863 42.3167V6.31665C0.234863 3.01665 2.93486 0.31665 6.23486 0.31665H156.235C159.535 0.31665 162.235 3.01665 162.235 6.31665V42.3167C162.235 45.6167 159.535 48.3167 156.235 48.3167Z" fill="url(#paint0_linear_1807_16573)"/>
<path d="M57.1389 12.6047C57.1389 13.6127 56.8389 14.4167 56.2389 15.0047C55.5669 15.7127 54.6789 16.0727 53.5989 16.0727C52.5549 16.0727 51.6789 15.7127 50.9469 14.9927C50.2149 14.2727 49.8549 13.3727 49.8549 12.3167C49.8549 11.2487 50.2149 10.3607 50.9469 9.64065C51.6789 8.92065 52.5549 8.56065 53.5989 8.56065C54.1149 8.56065 54.6069 8.65665 55.0749 8.86065C55.5429 9.06465 55.9149 9.32865 56.2029 9.66465L55.5669 10.3007C55.0869 9.73665 54.4389 9.44865 53.5989 9.44865C52.8429 9.44865 52.1829 9.71265 51.6309 10.2527C51.0789 10.7807 50.8029 11.4767 50.8029 12.3287C50.8029 13.1807 51.0789 13.8767 51.6309 14.4047C52.1829 14.9327 52.8429 15.2087 53.5989 15.2087C54.4029 15.2087 55.0749 14.9447 55.6149 14.4047C55.9629 14.0567 56.1669 13.5647 56.2149 12.9407H53.5989V12.0767H57.0909C57.1149 12.2567 57.1389 12.4367 57.1389 12.6047Z" fill="white" stroke="white" stroke-width="0.24" stroke-miterlimit="10"/>
<path d="M62.6709 9.60465H59.3949V11.8847H62.3469V12.7487H59.3949V15.0287H62.6709V15.9167H58.4709V8.71665H62.6709V9.60465Z" fill="white" stroke="white" stroke-width="0.24" stroke-miterlimit="10"/>
<path d="M66.5709 15.9167H65.6469V9.60465H63.6309V8.71665H68.5749V9.60465H66.5589V15.9167H66.5709Z" fill="white" stroke="white" stroke-width="0.24" stroke-miterlimit="10"/>
<path d="M72.1628 15.9167V8.71665H73.0868V15.9167H72.1628Z" fill="white" stroke="white" stroke-width="0.24" stroke-miterlimit="10"/>
<path d="M77.1907 15.9167H76.2667V9.60465H74.2507V8.71665H79.1947V9.60465H77.1787V15.9167H77.1907Z" fill="white" stroke="white" stroke-width="0.24" stroke-miterlimit="10"/>
<path d="M88.5668 14.9807C87.8588 15.7127 86.9828 16.0727 85.9268 16.0727C84.8708 16.0727 83.9948 15.7127 83.2868 14.9807C82.5788 14.2487 82.2308 13.3607 82.2308 12.3167C82.2308 11.2727 82.5788 10.3727 83.2868 9.65265C83.9948 8.92065 84.8708 8.56065 85.9268 8.56065C86.9708 8.56065 87.8468 8.92065 88.5668 9.65265C89.2748 10.3847 89.6348 11.2727 89.6348 12.3167C89.6228 13.3727 89.2748 14.2607 88.5668 14.9807ZM83.9708 14.3807C84.4988 14.9207 85.1588 15.1847 85.9268 15.1847C86.6948 15.1847 87.3548 14.9207 87.8828 14.3807C88.4108 13.8407 88.6868 13.1567 88.6868 12.3167C88.6868 11.4767 88.4228 10.7927 87.8828 10.2527C87.3548 9.71265 86.6948 9.44865 85.9268 9.44865C85.1588 9.44865 84.4988 9.71265 83.9708 10.2527C83.4428 10.7927 83.1668 11.4767 83.1668 12.3167C83.1668 13.1567 83.4428 13.8407 83.9708 14.3807Z" fill="white" stroke="white" stroke-width="0.24" stroke-miterlimit="10"/>
<path d="M90.9308 15.9167V8.71665H92.0588L95.5628 14.3207H95.5988L95.5628 12.9287V8.71665H96.4868V15.9167H95.5268L91.8668 10.0487H91.8308L91.8668 11.4407V15.9167H90.9308Z" fill="white" stroke="white" stroke-width="0.24" stroke-miterlimit="10"/>
<path d="M82.0029 26.4167C79.1829 26.4167 76.8789 28.5647 76.8789 31.5167C76.8789 34.4567 79.1829 36.6167 82.0029 36.6167C84.8229 36.6167 87.1269 34.4567 87.1269 31.5167C87.1269 28.5647 84.8229 26.4167 82.0029 26.4167ZM82.0029 34.6127C80.4549 34.6127 79.1229 33.3407 79.1229 31.5167C79.1229 29.6807 80.4549 28.4207 82.0029 28.4207C83.5509 28.4207 84.8829 29.6807 84.8829 31.5167C84.8829 33.3407 83.5389 34.6127 82.0029 34.6127ZM70.8189 26.4167C67.9989 26.4167 65.6949 28.5647 65.6949 31.5167C65.6949 34.4567 67.9989 36.6167 70.8189 36.6167C73.6389 36.6167 75.9429 34.4567 75.9429 31.5167C75.9429 28.5647 73.6389 26.4167 70.8189 26.4167ZM70.8189 34.6127C69.2709 34.6127 67.9389 33.3407 67.9389 31.5167C67.9389 29.6807 69.2709 28.4207 70.8189 28.4207C72.3669 28.4207 73.6989 29.6807 73.6989 31.5167C73.6989 33.3407 72.3669 34.6127 70.8189 34.6127ZM57.5229 27.9887V30.1487H62.7069C62.5509 31.3607 62.1429 32.2607 61.5309 32.8727C60.7749 33.6287 59.5989 34.4567 57.5349 34.4567C54.3429 34.4567 51.8469 31.8887 51.8469 28.6967C51.8469 25.5047 54.3429 22.9367 57.5349 22.9367C59.2509 22.9367 60.5109 23.6087 61.4349 24.4847L62.9589 22.9607C61.6629 21.7247 59.9469 20.7767 57.5229 20.7767C53.1549 20.7767 49.4829 24.3287 49.4829 28.7087C49.4829 33.0767 53.1549 36.6407 57.5229 36.6407C59.8869 36.6407 61.6629 35.8727 63.0549 34.4207C64.4829 32.9927 64.9269 30.9767 64.9269 29.3567C64.9269 28.8527 64.8909 28.3847 64.8069 28.0007H57.5229V27.9887ZM111.895 29.6687C111.475 28.5287 110.179 26.4167 107.527 26.4167C104.899 26.4167 102.715 28.4807 102.715 31.5167C102.715 34.3727 104.875 36.6167 107.779 36.6167C110.119 36.6167 111.475 35.1887 112.027 34.3607L110.287 33.1967C109.711 34.0487 108.919 34.6127 107.779 34.6127C106.639 34.6127 105.823 34.0847 105.307 33.0647L112.135 30.2447L111.895 29.6687ZM104.935 31.3727C104.875 29.4047 106.459 28.3967 107.599 28.3967C108.487 28.3967 109.243 28.8407 109.495 29.4767L104.935 31.3727ZM99.3909 36.3167H101.635V21.3167H99.3909V36.3167ZM95.7189 27.5567H95.6349C95.1309 26.9567 94.1709 26.4167 92.9469 26.4167C90.3909 26.4167 88.0509 28.6607 88.0509 31.5407C88.0509 34.3967 90.3909 36.6287 92.9469 36.6287C94.1589 36.6287 95.1309 36.0887 95.6349 35.4647H95.7069V36.1967C95.7069 38.1527 94.6629 39.1967 92.9829 39.1967C91.6149 39.1967 90.7629 38.2127 90.4149 37.3847L88.4589 38.2007C89.0229 39.5567 90.5109 41.2127 92.9829 41.2127C95.6109 41.2127 97.8309 39.6647 97.8309 35.8967V26.7287H95.7069V27.5567H95.7189ZM93.1389 34.6127C91.5909 34.6127 90.2949 33.3167 90.2949 31.5407C90.2949 29.7407 91.5909 28.4327 93.1389 28.4327C94.6629 28.4327 95.8629 29.7527 95.8629 31.5407C95.8749 33.3167 94.6749 34.6127 93.1389 34.6127ZM122.407 21.3167H117.043V36.3167H119.287V30.6287H122.419C124.903 30.6287 127.339 28.8287 127.339 25.9727C127.339 23.1167 124.879 21.3167 122.407 21.3167ZM122.455 28.5407H119.275V23.3927H122.455C124.135 23.3927 125.083 24.7847 125.083 25.9607C125.083 27.1367 124.135 28.5407 122.455 28.5407ZM136.303 26.3927C134.683 26.3927 133.003 27.1127 132.307 28.6847L134.299 29.5127C134.719 28.6847 135.511 28.4087 136.339 28.4087C137.491 28.4087 138.679 29.1047 138.691 30.3407V30.4967C138.283 30.2687 137.419 29.9207 136.351 29.9207C134.203 29.9207 132.031 31.0967 132.031 33.2927C132.031 35.2967 133.783 36.5927 135.751 36.5927C137.251 36.5927 138.091 35.9207 138.607 35.1287H138.679V36.2927H140.839V30.5447C140.851 27.8807 138.859 26.3927 136.303 26.3927ZM136.027 34.6127C135.295 34.6127 134.275 34.2407 134.275 33.3407C134.275 32.1887 135.547 31.7447 136.651 31.7447C137.635 31.7447 138.103 31.9607 138.691 32.2487C138.523 33.6287 137.323 34.6127 136.027 34.6127ZM148.723 26.7167L146.155 33.2207H146.083L143.419 26.7167H141.007L145.003 35.8127L142.723 40.8647H145.063L151.219 26.7167H148.723ZM128.563 36.3167H130.807V21.3167H128.563V36.3167Z" fill="white"/>
<path d="M12.7628 9.36466C12.4148 9.73666 12.2108 10.3127 12.2108 11.0447V37.5887C12.2108 38.3327 12.4148 38.9087 12.7628 39.2687L12.8468 39.3527L27.7148 24.4967V24.3167V24.1367L12.8468 9.28065L12.7628 9.36466Z" fill="white"/>
<path d="M33.196 29.4526L28.24 24.4966V24.3166V24.1367L33.196 19.1806L33.304 19.2407L39.172 22.5766C40.852 23.5246 40.852 25.0847 39.172 26.0447L33.304 29.3807L33.196 29.4526Z" fill="white"/>
<path d="M32.7788 30.5806L27.7148 25.5166L12.7628 40.4686C13.3148 41.0566 14.2268 41.1286 15.2588 40.5406L32.7788 30.5806Z" fill="white"/>
<path d="M32.7787 18.0527L15.2467 8.09265C14.2147 7.50465 13.3027 7.57665 12.7507 8.16465L27.7147 23.1167L32.7787 18.0527Z" fill="white"/>
<defs>
<linearGradient id="paint0_linear_1807_16573" x1="0.234863" y1="0.31665" x2="162.235" y2="48.3167" gradientUnits="userSpaceOnUse">
<stop stop-color="#FF82D4"/>
<stop offset="1" stop-color="#1B1378"/>
</linearGradient>
</defs>
</svg>
