<svg width="163" height="49" viewBox="0 0 163 49" fill="none" xmlns="http://www.w3.org/2000/svg">
<path d="M10.6373 48.3141C10.2187 48.3141 9.81025 48.3093 9.39495 48.3007C8.53463 48.2905 7.67632 48.2221 6.82706 48.0961C6.03517 47.9715 5.26804 47.7398 4.55097 47.4085C3.84048 47.08 3.19246 46.6493 2.63173 46.1329C2.06288 45.6225 1.58928 45.0305 1.22971 44.3805C0.866181 43.7262 0.614595 43.0249 0.48372 42.301C0.342386 41.5231 0.265918 40.7366 0.254976 39.9481C0.246266 39.6835 0.234863 38.8024 0.234863 38.8024V9.81493C0.234863 9.81493 0.247008 8.94733 0.255045 8.69243C0.265522 7.90525 0.341545 7.11994 0.482456 6.34329C0.613573 5.61739 0.865353 4.91406 1.22908 4.25763C1.58733 3.60802 2.05829 3.01563 2.62372 2.50343C3.1885 1.98636 3.8386 1.55342 4.5503 1.2204C5.26572 0.890228 6.0314 0.66014 6.82169 0.53784C7.67374 0.410558 8.53503 0.341742 9.39833 0.331972L10.638 0.31665H151.825L153.079 0.332587C153.935 0.341872 154.788 0.410073 155.633 0.536611C156.431 0.660444 157.205 0.892138 157.928 1.22407C159.354 1.89522 160.514 2.95703 161.246 4.26069C161.604 4.91259 161.852 5.61019 161.981 6.32981C162.124 7.11283 162.204 7.90432 162.22 8.69795C162.224 9.05332 162.224 9.43504 162.224 9.81493C162.235 10.2855 162.235 10.7334 162.235 11.185V37.447C162.235 37.9029 162.235 38.3477 162.224 38.7962C162.224 39.2043 162.224 39.5781 162.219 39.9628C162.203 40.7423 162.124 41.5197 161.984 42.2887C161.856 43.0178 161.605 43.7246 161.242 44.3842C160.88 45.0273 160.409 45.6141 159.847 46.1231C159.285 46.6423 158.636 47.0756 157.924 47.4061C157.203 47.7399 156.43 47.9725 155.633 48.0961C154.783 48.2227 153.925 48.2912 153.065 48.3007C152.662 48.3093 152.241 48.3141 151.832 48.3141L150.343 48.3167L10.6373 48.3141Z" fill="url(#paint0_linear_1807_16595)"/>
<path d="M28.9099 23.6275C28.9228 22.6259 29.1888 21.6438 29.6832 20.7727C30.1777 19.9015 30.8844 19.1696 31.7377 18.645C31.1956 17.8708 30.4805 17.2337 29.6491 16.7842C28.8177 16.3347 27.893 16.0853 26.9483 16.0558C24.9332 15.8443 22.9797 17.2616 21.9529 17.2616C20.9061 17.2616 19.3251 16.0768 17.6227 16.1118C16.5214 16.1474 15.4482 16.4676 14.5076 17.0413C13.5669 17.6149 12.7909 18.4225 12.2551 19.3852C9.93435 23.4034 11.6655 29.3086 13.8886 32.5565C15.0009 34.147 16.3008 35.9235 18.0017 35.8605C19.6662 35.7915 20.2879 34.7991 22.297 34.7991C24.2875 34.7991 24.8708 35.8605 26.6062 35.8204C28.3923 35.7915 29.5176 34.223 30.5908 32.6175C31.39 31.4842 32.005 30.2318 32.4129 28.9065C31.3753 28.4676 30.4898 27.733 29.8668 26.7942C29.2439 25.8555 28.9111 24.7541 28.9099 23.6275V23.6275Z" fill="white"/>
<path d="M25.6318 13.9197C26.6057 12.7507 27.0854 11.2481 26.9693 9.73097C25.4815 9.88724 24.1071 10.5983 23.1202 11.7225C22.6376 12.2717 22.268 12.9106 22.0325 13.6028C21.797 14.2949 21.7002 15.0266 21.7477 15.7562C22.4919 15.7638 23.2281 15.6025 23.9009 15.2844C24.5737 14.9663 25.1655 14.4997 25.6318 13.9197Z" fill="white"/>
<path d="M49.9499 31.8342H44.2698L42.9057 35.862H40.4999L45.88 20.9604H48.3796L53.7596 35.862H51.3128L49.9499 31.8342ZM44.8581 29.9756H49.3605L47.1409 23.4389H47.0788L44.8581 29.9756Z" fill="white"/>
<path d="M65.3788 30.4303C65.3788 33.8065 63.5718 35.9756 60.8448 35.9756C60.154 36.0118 59.467 35.8526 58.8625 35.5165C58.2579 35.1803 57.7603 34.6807 57.4265 34.0748H57.3749V39.4561H55.1448V24.9975H57.3034V26.8045H57.3444C57.6936 26.2016 58.1996 25.7045 58.8088 25.3663C59.418 25.0281 60.1074 24.8614 60.8038 24.8838C63.5612 24.8838 65.3788 27.0635 65.3788 30.4303ZM63.0866 30.4303C63.0866 28.2307 61.9499 26.7846 60.2155 26.7846C58.5116 26.7846 57.3655 28.2612 57.3655 30.4303C57.3655 32.6194 58.5116 34.0854 60.2155 34.0854C61.9499 34.0854 63.0866 32.6499 63.0866 30.4303Z" fill="white"/>
<path d="M77.3366 30.4303C77.3366 33.8065 75.5296 35.9756 72.8026 35.9756C72.1119 36.0118 71.4249 35.8527 70.8203 35.5165C70.2157 35.1803 69.7181 34.6807 69.3843 34.0748H69.3327V39.4561H67.1026V24.9975H69.2612V26.8045H69.3022C69.6513 26.2016 70.1574 25.7046 70.7666 25.3663C71.3757 25.0281 72.0652 24.8614 72.7616 24.8838C75.519 24.8838 77.3366 27.0635 77.3366 30.4303ZM75.0444 30.4303C75.0444 28.2307 73.9077 26.7846 72.1733 26.7846C70.4694 26.7846 69.3233 28.2612 69.3233 30.4303C69.3233 32.6194 70.4694 34.0854 72.1733 34.0854C73.9077 34.0854 75.0444 32.6499 75.0444 30.4303H75.0444Z" fill="white"/>
<path d="M85.2398 31.71C85.405 33.1877 86.8406 34.158 88.8023 34.158C90.682 34.158 92.0343 33.1877 92.0343 31.8553C92.0343 30.6986 91.2187 30.0061 89.2874 29.5314L87.3562 29.0662C84.6198 28.4053 83.3495 27.1256 83.3495 25.049C83.3495 22.4779 85.5902 20.7119 88.7718 20.7119C91.9206 20.7119 94.0792 22.4779 94.1519 25.049H91.9007C91.7659 23.5619 90.5366 22.6642 88.7401 22.6642C86.9436 22.6642 85.7143 23.5725 85.7143 24.8943C85.7143 25.9478 86.4995 26.5678 88.4202 27.0423L90.062 27.4455C93.1194 28.1685 94.3897 29.3967 94.3897 31.5763C94.3897 34.3642 92.169 36.1103 88.637 36.1103C85.3323 36.1103 83.1011 34.4052 82.9569 31.7099L85.2398 31.71Z" fill="white"/>
<path d="M99.2026 22.4264V24.9975H101.269V26.7635H99.2026V32.753C99.2026 33.6834 99.6162 34.117 100.524 34.117C100.77 34.1128 101.015 34.0955 101.258 34.0654V35.8209C100.85 35.8972 100.435 35.9318 100.019 35.924C97.8198 35.924 96.9619 35.0979 96.9619 32.9908V26.7635H95.3823V24.9975H96.9619V22.4264H99.2026Z" fill="white"/>
<path d="M102.465 30.4303C102.465 27.012 104.478 24.8639 107.618 24.8639C110.768 24.8639 112.772 27.0119 112.772 30.4303C112.772 33.8581 110.778 35.9967 107.618 35.9967C104.458 35.9967 102.465 33.8581 102.465 30.4303ZM110.5 30.4303C110.5 28.0854 109.425 26.7014 107.618 26.7014C105.811 26.7014 104.737 28.096 104.737 30.4303C104.737 32.7846 105.811 34.1581 107.618 34.1581C109.425 34.1581 110.499 32.7846 110.499 30.4303H110.5Z" fill="white"/>
<path d="M114.61 24.9975H116.737V26.8467H116.789C116.933 26.2692 117.271 25.7588 117.747 25.4013C118.223 25.0438 118.807 24.8611 119.402 24.8838C119.659 24.8829 119.916 24.9108 120.166 24.967V27.053C119.842 26.9538 119.503 26.9083 119.164 26.9182C118.84 26.9051 118.517 26.9622 118.218 27.0857C117.918 27.2091 117.648 27.396 117.427 27.6335C117.207 27.8709 117.04 28.1534 116.939 28.4614C116.837 28.7694 116.804 29.0957 116.84 29.4178V35.862H114.61L114.61 24.9975Z" fill="white"/>
<path d="M130.448 32.6709C130.148 34.6432 128.228 35.9967 125.77 35.9967C122.61 35.9967 120.648 33.8791 120.648 30.4819C120.648 27.0741 122.62 24.8639 125.676 24.8639C128.682 24.8639 130.573 26.9288 130.573 30.2229V30.987H122.899V31.1217C122.864 31.5216 122.914 31.9244 123.046 32.3034C123.178 32.6824 123.389 33.0289 123.666 33.32C123.942 33.611 124.278 33.8399 124.649 33.9915C125.021 34.1431 125.421 34.2138 125.822 34.1991C126.349 34.2484 126.878 34.1264 127.33 33.8511C127.782 33.5757 128.133 33.1618 128.331 32.6709L130.448 32.6709ZM122.91 29.4284H128.341C128.361 29.0689 128.307 28.7091 128.181 28.3716C128.056 28.0342 127.862 27.7263 127.611 27.4674C127.361 27.2085 127.06 27.0041 126.727 26.867C126.394 26.73 126.036 26.6632 125.676 26.6709C125.313 26.6688 124.953 26.7386 124.617 26.8762C124.281 27.0139 123.976 27.2168 123.718 27.4732C123.461 27.7295 123.257 28.0343 123.118 28.3699C122.98 28.7055 122.909 29.0652 122.91 29.4284V29.4284Z" fill="white"/>
<path d="M44.5785 9.74385C45.046 9.7103 45.5152 9.78093 45.9521 9.95065C46.3891 10.1204 46.7829 10.3849 47.1052 10.7253C47.4275 11.0656 47.6702 11.4733 47.8159 11.9188C47.9616 12.3643 48.0066 12.8366 47.9477 13.3017C47.9477 15.5892 46.7113 16.9041 44.5785 16.9041H41.9922V9.74385H44.5785ZM43.1043 15.8915H44.4543C44.7884 15.9114 45.1227 15.8566 45.433 15.7311C45.7432 15.6056 46.0216 15.4124 46.2477 15.1658C46.4739 14.9191 46.6423 14.6251 46.7405 14.3051C46.8387 13.9852 46.8644 13.6474 46.8156 13.3163C46.8609 12.9865 46.8326 12.6507 46.7329 12.3331C46.6331 12.0155 46.4644 11.7239 46.2387 11.4792C46.013 11.2345 45.736 11.0427 45.4275 10.9176C45.119 10.7926 44.7867 10.7373 44.4543 10.7557H43.1043V15.8915Z" fill="white"/>
<path d="M49.2039 14.1998C49.17 13.8447 49.2106 13.4865 49.3232 13.148C49.4358 12.8095 49.6179 12.4983 49.8579 12.2343C50.0978 11.9703 50.3902 11.7594 50.7165 11.6151C51.0427 11.4708 51.3955 11.3962 51.7522 11.3962C52.1089 11.3962 52.4617 11.4708 52.7879 11.6151C53.1141 11.7594 53.4066 11.9703 53.6465 12.2343C53.8865 12.4983 54.0686 12.8095 54.1812 13.148C54.2938 13.4865 54.3344 13.8447 54.3004 14.1998C54.335 14.5553 54.2949 14.9141 54.1826 15.2531C54.0703 15.5922 53.8883 15.9039 53.6483 16.1684C53.4083 16.4329 53.1156 16.6443 52.7891 16.7889C52.4625 16.9336 52.1093 17.0083 51.7522 17.0083C51.395 17.0083 51.0418 16.9336 50.7153 16.7889C50.3887 16.6443 50.0961 16.4329 49.8561 16.1684C49.6161 15.9039 49.4341 15.5922 49.3218 15.2531C49.2095 14.9141 49.1693 14.5553 49.2039 14.1998V14.1998ZM53.2035 14.1998C53.2035 13.0286 52.6774 12.3436 51.7539 12.3436C50.827 12.3436 50.3055 13.0286 50.3055 14.1999C50.3055 15.3805 50.827 16.0602 51.7539 16.0602C52.6774 16.0602 53.2036 15.3758 53.2036 14.1998H53.2035Z" fill="white"/>
<path d="M61.075 16.9039H59.9688L58.852 12.9243H58.7676L57.6555 16.9039H56.5598L55.0703 11.5004H56.152L57.1199 15.6236H57.1996L58.3106 11.5004H59.3336L60.4445 15.6236H60.5289L61.4922 11.5004H62.5586L61.075 16.9039Z" fill="white"/>
<path d="M63.8114 11.5004H64.838V12.3588H64.9177C65.0528 12.0505 65.2808 11.7921 65.5699 11.6195C65.8589 11.4469 66.1946 11.3688 66.5302 11.3961C66.7931 11.3764 67.0571 11.416 67.3026 11.5121C67.5481 11.6082 67.7689 11.7584 67.9485 11.9514C68.1281 12.1444 68.262 12.3753 68.3402 12.6271C68.4185 12.8789 68.4391 13.1451 68.4005 13.4059V16.9039H67.3341V13.6737C67.3341 12.8053 66.9567 12.3735 66.168 12.3735C65.9895 12.3652 65.8113 12.3955 65.6457 12.4625C65.48 12.5295 65.3308 12.6316 65.2082 12.7616C65.0857 12.8917 64.9927 13.0467 64.9357 13.2161C64.8786 13.3854 64.8589 13.5651 64.8778 13.7428V16.9039H63.8114L63.8114 11.5004Z" fill="white"/>
<path d="M70.0997 9.39104H71.1661V16.9039H70.0997V9.39104Z" fill="white"/>
<path d="M72.6485 14.1998C72.6146 13.8447 72.6552 13.4864 72.7678 13.1479C72.8805 12.8094 73.0626 12.4982 73.3026 12.2342C73.5425 11.9702 73.835 11.7593 74.1612 11.615C74.4875 11.4707 74.8403 11.3961 75.197 11.3961C75.5538 11.3961 75.9066 11.4707 76.2328 11.615C76.5591 11.7593 76.8516 11.9702 77.0915 12.2342C77.3315 12.4982 77.5136 12.8094 77.6262 13.1479C77.7389 13.4864 77.7795 13.8447 77.7456 14.1998C77.7801 14.5553 77.74 14.9141 77.6276 15.2531C77.5153 15.5922 77.3332 15.9039 77.0932 16.1684C76.8532 16.4329 76.5605 16.6443 76.234 16.7889C75.9074 16.9335 75.5542 17.0083 75.197 17.0083C74.8399 17.0083 74.4867 16.9335 74.1601 16.7889C73.8335 16.6443 73.5409 16.4329 73.3008 16.1684C73.0608 15.9039 72.8788 15.5922 72.7665 15.2531C72.6541 14.9141 72.6139 14.5553 72.6485 14.1998V14.1998ZM76.6481 14.1998C76.6481 13.0286 76.1219 12.3436 75.1985 12.3436C74.2715 12.3436 73.7501 13.0286 73.7501 14.1999C73.7501 15.3805 74.2716 16.0602 75.1985 16.0602C76.1219 16.0602 76.6481 15.3758 76.6481 14.1998H76.6481Z" fill="white"/>
<path d="M78.8682 15.3758C78.8682 14.4032 79.5924 13.8424 80.878 13.7627L82.3417 13.6784V13.212C82.3417 12.6413 81.9643 12.319 81.2354 12.319C80.6401 12.319 80.2276 12.5376 80.1092 12.9196H79.0768C79.1858 11.9915 80.0589 11.3961 81.2846 11.3961C82.6393 11.3961 83.4034 12.0705 83.4034 13.212V16.904H82.3768V16.1446H82.2924C82.1212 16.417 81.8807 16.639 81.5956 16.7881C81.3104 16.9371 80.9908 17.0078 80.6694 16.993C80.4426 17.0166 80.2133 16.9924 79.9964 16.9219C79.7795 16.8515 79.5797 16.7364 79.41 16.584C79.2403 16.4317 79.1044 16.2454 79.0111 16.0373C78.9178 15.8292 78.8691 15.6039 78.8682 15.3758V15.3758ZM82.3417 14.9141V14.4624L81.0221 14.5467C80.278 14.5965 79.9405 14.8497 79.9405 15.326C79.9405 15.8123 80.3624 16.0953 80.9425 16.0953C81.1125 16.1126 81.2842 16.0954 81.4474 16.0449C81.6106 15.9944 81.7619 15.9116 81.8925 15.8013C82.023 15.6911 82.1301 15.5558 82.2072 15.4034C82.2844 15.2509 82.3301 15.0846 82.3417 14.9141V14.9141Z" fill="white"/>
<path d="M84.8049 14.1999C84.8049 12.4924 85.6827 11.4108 87.0479 11.4108C87.3856 11.3952 87.7208 11.4761 88.0142 11.644C88.3076 11.8119 88.5472 12.0598 88.7049 12.3588H88.7846V9.39104H89.851V16.9039H88.8292V16.0502H88.7448C88.5749 16.3472 88.3269 16.592 88.0278 16.7582C87.7287 16.9244 87.3898 17.0056 87.0479 16.993C85.6733 16.993 84.8049 15.9114 84.8049 14.1999ZM85.9065 14.1999C85.9065 15.3459 86.4468 16.0356 87.3503 16.0356C88.2491 16.0356 88.8046 15.336 88.8046 14.2045C88.8046 13.0784 88.2433 12.3688 87.3503 12.3688C86.4526 12.3688 85.9065 13.0631 85.9065 14.1999H85.9065Z" fill="white"/>
<path d="M94.2631 14.1998C94.2291 13.8447 94.2697 13.4865 94.3823 13.148C94.495 12.8095 94.6771 12.4983 94.917 12.2343C95.1569 11.9703 95.4494 11.7594 95.7756 11.6151C96.1018 11.4708 96.4546 11.3962 96.8113 11.3962C97.1681 11.3962 97.5208 11.4708 97.8471 11.6151C98.1733 11.7594 98.4657 11.9703 98.7057 12.2343C98.9456 12.4983 99.1277 12.8095 99.2403 13.148C99.3529 13.4865 99.3935 13.8447 99.3596 14.1998C99.3942 14.5553 99.354 14.9141 99.2417 15.2531C99.1294 15.5922 98.9474 15.9039 98.7074 16.1684C98.4674 16.4329 98.1748 16.6443 97.8482 16.7889C97.5217 16.9336 97.1685 17.0083 96.8113 17.0083C96.4542 17.0083 96.101 16.9336 95.7744 16.7889C95.4479 16.6443 95.1552 16.4329 94.9152 16.1684C94.6752 15.9039 94.4932 15.5922 94.3809 15.2531C94.2686 14.9141 94.2285 14.5553 94.2631 14.1998V14.1998ZM98.2627 14.1998C98.2627 13.0286 97.7365 12.3436 96.8131 12.3436C95.8861 12.3436 95.3647 13.0286 95.3647 14.1999C95.3647 15.3805 95.8862 16.0602 96.8131 16.0602C97.7365 16.0602 98.2627 15.3758 98.2627 14.1998Z" fill="white"/>
<path d="M100.79 11.5004H101.817V12.3588H101.897C102.032 12.0505 102.26 11.7921 102.549 11.6195C102.838 11.4469 103.174 11.3688 103.509 11.3961C103.772 11.3764 104.036 11.416 104.282 11.5121C104.527 11.6082 104.748 11.7584 104.928 11.9514C105.107 12.1444 105.241 12.3753 105.319 12.6271C105.398 12.8789 105.418 13.1451 105.38 13.4059V16.9039H104.313V13.6737C104.313 12.8053 103.936 12.3735 103.147 12.3735C102.969 12.3652 102.79 12.3955 102.625 12.4625C102.459 12.5295 102.31 12.6316 102.187 12.7616C102.065 12.8917 101.972 13.0467 101.915 13.2161C101.858 13.3854 101.838 13.5651 101.857 13.7428V16.9039H100.79V11.5004Z" fill="white"/>
<path d="M111.405 10.1551V11.525H112.576V12.4233H111.405V15.2018C111.405 15.7678 111.639 16.0157 112.169 16.0157C112.305 16.0152 112.441 16.007 112.576 15.9911V16.8793C112.385 16.9136 112.19 16.9318 111.996 16.9338C110.81 16.9338 110.338 16.5166 110.338 15.4748V12.4232H109.48V11.525H110.338V10.1551H111.405Z" fill="white"/>
<path d="M114.033 9.39104H115.09V12.3688H115.174C115.316 12.0576 115.55 11.7977 115.845 11.6245C116.14 11.4513 116.481 11.3732 116.822 11.4008C117.083 11.3866 117.345 11.4303 117.587 11.5287C117.83 11.6272 118.048 11.778 118.226 11.9704C118.404 12.1628 118.537 12.392 118.616 12.6418C118.695 12.8916 118.717 13.1557 118.683 13.4153V16.9039H117.615V13.6783C117.615 12.8153 117.213 12.3781 116.46 12.3781C116.276 12.3631 116.092 12.3883 115.919 12.452C115.747 12.5156 115.59 12.6162 115.461 12.7467C115.331 12.8772 115.232 13.0344 115.169 13.2074C115.107 13.3804 115.083 13.5649 115.099 13.7481V16.9039H114.033L114.033 9.39104Z" fill="white"/>
<path d="M124.901 15.445C124.756 15.9388 124.442 16.366 124.014 16.6518C123.586 16.9376 123.071 17.0637 122.559 17.0082C122.203 17.0176 121.849 16.9495 121.522 16.8084C121.195 16.6674 120.903 16.4569 120.666 16.1915C120.428 15.9261 120.251 15.6123 120.147 15.2717C120.043 14.9311 120.014 14.572 120.063 14.2192C120.016 13.8653 120.045 13.5054 120.149 13.1638C120.252 12.8222 120.428 12.5069 120.665 12.2392C120.901 11.9715 121.192 11.7577 121.518 11.6122C121.844 11.4668 122.197 11.3931 122.554 11.3961C124.058 11.3961 124.965 12.4233 124.965 14.1201V14.4922H121.149V14.552C121.133 14.7503 121.158 14.9499 121.223 15.138C121.288 15.3261 121.391 15.4986 121.527 15.6443C121.662 15.79 121.826 15.9059 122.009 15.9843C122.192 16.0628 122.389 16.1022 122.588 16.1C122.844 16.1306 123.102 16.0847 123.331 15.9681C123.56 15.8514 123.749 15.6693 123.874 15.4449L124.901 15.445ZM121.149 13.7036H123.879C123.892 13.5222 123.867 13.34 123.806 13.1688C123.745 12.9975 123.649 12.8409 123.524 12.7091C123.398 12.5773 123.247 12.4731 123.079 12.4033C122.911 12.3335 122.73 12.2996 122.549 12.3038C122.364 12.3014 122.181 12.3361 122.01 12.4056C121.839 12.4751 121.684 12.5782 121.554 12.7086C121.423 12.8391 121.32 12.9943 121.251 13.1652C121.182 13.3361 121.147 13.5191 121.149 13.7036H121.149Z" fill="white"/>
<defs>
<linearGradient id="paint0_linear_1807_16595" x1="0.234863" y1="0.31665" x2="162.235" y2="48.3167" gradientUnits="userSpaceOnUse">
<stop stop-color="#FF82D4"/>
<stop offset="1" stop-color="#1B1378"/>
</linearGradient>
</defs>
</svg>
