<svg width="156" height="60" viewBox="0 0 156 60" fill="none" xmlns="http://www.w3.org/2000/svg">
<path d="M140.664 50H15.6641C12.9141 50 10.6641 47.75 10.6641 45V15C10.6641 12.25 12.9141 10 15.6641 10H140.664C143.414 10 145.664 12.25 145.664 15V45C145.664 47.75 143.414 50 140.664 50Z" fill="black"/>
<path d="M140.664 10.8C142.984 10.8 144.864 12.68 144.864 15V45C144.864 47.32 142.984 49.2 140.664 49.2H15.6641C13.3441 49.2 11.4641 47.32 11.4641 45V15C11.4641 12.68 13.3441 10.8 15.6641 10.8H140.664ZM140.664 10H15.6641C12.9141 10 10.6641 12.25 10.6641 15V45C10.6641 47.75 12.9141 50 15.6641 50H140.664C143.414 50 145.664 47.75 145.664 45V15C145.664 12.25 143.414 10 140.664 10Z" fill="#A6A6A6"/>
<path d="M58.084 20.2401C58.084 21.0801 57.834 21.7501 57.334 22.2401C56.774 22.8301 56.034 23.1301 55.134 23.1301C54.264 23.1301 53.534 22.8301 52.924 22.2301C52.314 21.6301 52.014 20.8801 52.014 20.0001C52.014 19.1101 52.314 18.3701 52.924 17.7701C53.534 17.1701 54.264 16.8701 55.134 16.8701C55.564 16.8701 55.974 16.9501 56.364 17.1201C56.754 17.2901 57.064 17.5101 57.304 17.7901L56.774 18.3201C56.374 17.8501 55.834 17.6101 55.134 17.6101C54.504 17.6101 53.954 17.8301 53.494 18.2801C53.034 18.7201 52.804 19.3001 52.804 20.0101C52.804 20.7201 53.034 21.3001 53.494 21.7401C53.954 22.1801 54.504 22.4101 55.134 22.4101C55.804 22.4101 56.364 22.1901 56.814 21.7401C57.104 21.4501 57.274 21.0401 57.314 20.5201H55.134V19.8001H58.044C58.064 19.9501 58.084 20.1001 58.084 20.2401Z" fill="white" stroke="white" stroke-width="0.2" stroke-miterlimit="10"/>
<path d="M62.694 17.74H59.964V19.64H62.424V20.36H59.964V22.26H62.694V23H59.194V17H62.694V17.74Z" fill="white" stroke="white" stroke-width="0.2" stroke-miterlimit="10"/>
<path d="M65.944 23H65.174V17.74H63.494V17H67.614V17.74H65.934V23H65.944Z" fill="white" stroke="white" stroke-width="0.2" stroke-miterlimit="10"/>
<path d="M70.6041 23V17H71.3741V23H70.6041Z" fill="white" stroke="white" stroke-width="0.2" stroke-miterlimit="10"/>
<path d="M74.7941 23H74.0241V17.74H72.3441V17H76.4641V17.74H74.7841V23H74.7941Z" fill="white" stroke="white" stroke-width="0.2" stroke-miterlimit="10"/>
<path d="M84.274 22.2201C83.684 22.8301 82.954 23.1301 82.074 23.1301C81.194 23.1301 80.464 22.8301 79.874 22.2201C79.284 21.6101 78.994 20.8701 78.994 20.0001C78.994 19.1301 79.284 18.3801 79.874 17.7801C80.464 17.1701 81.194 16.8701 82.074 16.8701C82.944 16.8701 83.674 17.1701 84.274 17.7801C84.864 18.3901 85.164 19.1301 85.164 20.0001C85.154 20.8801 84.864 21.6201 84.274 22.2201ZM80.444 21.7201C80.884 22.1701 81.434 22.3901 82.074 22.3901C82.714 22.3901 83.264 22.1701 83.704 21.7201C84.144 21.2701 84.374 20.7001 84.374 20.0001C84.374 19.3001 84.154 18.7301 83.704 18.2801C83.264 17.8301 82.714 17.6101 82.074 17.6101C81.434 17.6101 80.884 17.8301 80.444 18.2801C80.004 18.7301 79.774 19.3001 79.774 20.0001C79.774 20.7001 80.004 21.2701 80.444 21.7201Z" fill="white" stroke="white" stroke-width="0.2" stroke-miterlimit="10"/>
<path d="M86.244 23V17H87.184L90.104 21.67H90.134L90.104 20.51V17H90.874V23H90.074L87.024 18.11H86.994L87.024 19.27V23H86.244Z" fill="white" stroke="white" stroke-width="0.2" stroke-miterlimit="10"/>
<path d="M78.804 31.7498C76.454 31.7498 74.534 33.5398 74.534 35.9998C74.534 38.4498 76.454 40.2498 78.804 40.2498C81.154 40.2498 83.074 38.4498 83.074 35.9998C83.074 33.5398 81.154 31.7498 78.804 31.7498ZM78.804 38.5798C77.514 38.5798 76.404 37.5198 76.404 35.9998C76.404 34.4698 77.514 33.4198 78.804 33.4198C80.094 33.4198 81.204 34.4698 81.204 35.9998C81.204 37.5198 80.084 38.5798 78.804 38.5798ZM69.484 31.7498C67.134 31.7498 65.214 33.5398 65.214 35.9998C65.214 38.4498 67.134 40.2498 69.484 40.2498C71.834 40.2498 73.754 38.4498 73.754 35.9998C73.754 33.5398 71.834 31.7498 69.484 31.7498ZM69.484 38.5798C68.194 38.5798 67.084 37.5198 67.084 35.9998C67.084 34.4698 68.194 33.4198 69.484 33.4198C70.774 33.4198 71.884 34.4698 71.884 35.9998C71.884 37.5198 70.774 38.5798 69.484 38.5798ZM58.404 33.0598V34.8598H62.724C62.594 35.8698 62.254 36.6198 61.744 37.1298C61.114 37.7598 60.134 38.4498 58.414 38.4498C55.754 38.4498 53.674 36.3098 53.674 33.6498C53.674 30.9898 55.754 28.8498 58.414 28.8498C59.844 28.8498 60.894 29.4098 61.664 30.1398L62.934 28.8698C61.854 27.8398 60.424 27.0498 58.404 27.0498C54.764 27.0498 51.704 30.0098 51.704 33.6598C51.704 37.2998 54.764 40.2698 58.404 40.2698C60.374 40.2698 61.854 39.6298 63.014 38.4198C64.204 37.2298 64.574 35.5498 64.574 34.1998C64.574 33.7798 64.544 33.3898 64.474 33.0698H58.404V33.0598ZM103.714 34.4598C103.364 33.5098 102.284 31.7498 100.074 31.7498C97.884 31.7498 96.064 33.4698 96.064 35.9998C96.064 38.3798 97.864 40.2498 100.284 40.2498C102.234 40.2498 103.364 39.0598 103.824 38.3698L102.374 37.3998C101.894 38.1098 101.234 38.5798 100.284 38.5798C99.334 38.5798 98.654 38.1398 98.224 37.2898L103.914 34.9398L103.714 34.4598ZM97.914 35.8798C97.864 34.2398 99.184 33.3998 100.134 33.3998C100.874 33.3998 101.504 33.7698 101.714 34.2998L97.914 35.8798ZM93.294 39.9998H95.164V27.4998H93.294V39.9998ZM90.234 32.6998H90.164C89.744 32.1998 88.944 31.7498 87.924 31.7498C85.794 31.7498 83.844 33.6198 83.844 36.0198C83.844 38.3998 85.794 40.2598 87.924 40.2598C88.934 40.2598 89.744 39.8098 90.164 39.2898H90.224V39.8998C90.224 41.5298 89.354 42.3998 87.954 42.3998C86.814 42.3998 86.104 41.5798 85.814 40.8898L84.184 41.5698C84.654 42.6998 85.894 44.0798 87.954 44.0798C90.144 44.0798 91.994 42.7898 91.994 39.6498V32.0098H90.224V32.6998H90.234ZM88.084 38.5798C86.794 38.5798 85.714 37.4998 85.714 36.0198C85.714 34.5198 86.794 33.4298 88.084 33.4298C89.354 33.4298 90.354 34.5298 90.354 36.0198C90.364 37.4998 89.364 38.5798 88.084 38.5798ZM112.474 27.4998H108.004V39.9998H109.874V35.2598H112.484C114.554 35.2598 116.584 33.7598 116.584 31.3798C116.584 28.9998 114.534 27.4998 112.474 27.4998ZM112.514 33.5198H109.864V29.2298H112.514C113.914 29.2298 114.704 30.3898 114.704 31.3698C114.704 32.3498 113.914 33.5198 112.514 33.5198ZM124.054 31.7298C122.704 31.7298 121.304 32.3298 120.724 33.6398L122.384 34.3298C122.734 33.6398 123.394 33.4098 124.084 33.4098C125.044 33.4098 126.034 33.9898 126.044 35.0198V35.1498C125.704 34.9598 124.984 34.6698 124.094 34.6698C122.304 34.6698 120.494 35.6498 120.494 37.4798C120.494 39.1498 121.954 40.2298 123.594 40.2298C124.844 40.2298 125.544 39.6698 125.974 39.0098H126.034V39.9798H127.834V35.1898C127.844 32.9698 126.184 31.7298 124.054 31.7298ZM123.824 38.5798C123.214 38.5798 122.364 38.2698 122.364 37.5198C122.364 36.5598 123.424 36.1898 124.344 36.1898C125.164 36.1898 125.554 36.3698 126.044 36.6098C125.904 37.7598 124.904 38.5798 123.824 38.5798ZM134.404 31.9998L132.264 37.4198H132.204L129.984 31.9998H127.974L131.304 39.5798L129.404 43.7898H131.354L136.484 31.9998H134.404ZM117.604 39.9998H119.474V27.4998H117.604V39.9998Z" fill="white"/>
<path d="M21.104 17.5402C20.814 17.8502 20.644 18.3302 20.644 18.9402V41.0602C20.644 41.6802 20.814 42.1602 21.104 42.4602L21.174 42.5302L33.564 30.1502V30.0002V29.8502L21.174 17.4702L21.104 17.5402Z" fill="url(#paint0_linear_1828_16253)"/>
<path d="M37.694 34.2802L33.564 30.1502V30.0002V29.8502L37.694 25.7202L37.784 25.7702L42.674 28.5502C44.074 29.3402 44.074 30.6402 42.674 31.4402L37.784 34.2202L37.694 34.2802Z" fill="url(#paint1_linear_1828_16253)"/>
<path d="M37.784 34.22L33.564 30L21.104 42.46C21.564 42.95 22.324 43.01 23.184 42.52L37.784 34.22Z" fill="url(#paint2_linear_1828_16253)"/>
<path d="M37.7841 25.78L23.1741 17.48C22.3141 16.99 21.5541 17.05 21.0941 17.54L33.5641 30L37.7841 25.78Z" fill="url(#paint3_linear_1828_16253)"/>
<path opacity="0.2" d="M37.6941 34.1299L23.1741 42.3799C22.3641 42.8399 21.6341 42.8099 21.1741 42.3899L21.1041 42.4599L21.1741 42.5299C21.6441 42.9499 22.3641 42.9799 23.1741 42.5199L37.7841 34.2199L37.6941 34.1299Z" fill="black"/>
<path opacity="0.12" d="M21.104 42.3199C20.814 42.0099 20.644 41.5299 20.644 40.9199V41.0699C20.644 41.6899 20.814 42.1699 21.104 42.4699L21.174 42.3999L21.104 42.3199Z" fill="black"/>
<path opacity="0.12" d="M42.674 31.3L37.684 34.13L37.774 34.22L42.664 31.44C43.364 31.04 43.714 30.52 43.714 30C43.664 30.47 43.314 30.94 42.674 31.3Z" fill="black"/>
<path opacity="0.25" d="M23.174 17.6199L42.674 28.6999C43.304 29.0599 43.664 29.5199 43.724 29.9999C43.724 29.4799 43.374 28.9499 42.674 28.5599L23.174 17.4799C21.774 16.6899 20.634 17.3499 20.634 18.9499V19.0999C20.634 17.4899 21.784 16.8299 23.174 17.6199Z" fill="white"/>
<defs>
<linearGradient id="paint0_linear_1828_16253" x1="32.4637" y1="18.7099" x2="15.6813" y2="35.4923" gradientUnits="userSpaceOnUse">
<stop stop-color="#00A0FF"/>
<stop offset="0.00657445" stop-color="#00A1FF"/>
<stop offset="0.2601" stop-color="#00BEFF"/>
<stop offset="0.5122" stop-color="#00D2FF"/>
<stop offset="0.7604" stop-color="#00DFFF"/>
<stop offset="1" stop-color="#00E3FF"/>
</linearGradient>
<linearGradient id="paint1_linear_1828_16253" x1="44.4984" y1="30.0016" x2="20.3015" y2="30.0016" gradientUnits="userSpaceOnUse">
<stop stop-color="#FFE000"/>
<stop offset="0.4087" stop-color="#FFBD00"/>
<stop offset="0.7754" stop-color="#FFA500"/>
<stop offset="1" stop-color="#FF9C00"/>
</linearGradient>
<linearGradient id="paint2_linear_1828_16253" x1="35.491" y1="32.2961" x2="12.7327" y2="55.0544" gradientUnits="userSpaceOnUse">
<stop stop-color="#FF3A44"/>
<stop offset="1" stop-color="#C31162"/>
</linearGradient>
<linearGradient id="paint3_linear_1828_16253" x1="17.9614" y1="10.1762" x2="28.124" y2="20.3387" gradientUnits="userSpaceOnUse">
<stop stop-color="#32A071"/>
<stop offset="0.0685" stop-color="#2DA771"/>
<stop offset="0.4762" stop-color="#15CF74"/>
<stop offset="0.8009" stop-color="#06E775"/>
<stop offset="1" stop-color="#00F076"/>
</linearGradient>
</defs>
</svg>
