<svg width="132" height="52" viewBox="0 0 132 52" fill="none" xmlns="http://www.w3.org/2000/svg">
<path fill-rule="evenodd" clip-rule="evenodd" d="M0.799988 28.1171L1.99165 27.122C3.18332 26.1268 5.56665 24.1366 8.05832 22.1463C10.4417 20.1561 12.825 18.1659 15.2083 18.1659C17.7 18.1659 20.0833 20.1561 22.4667 21.1512C24.85 22.1463 27.2333 22.1463 29.725 18.1659C32.1083 14.1854 34.4916 6.22439 36.875 8.21463C39.3666 10.2049 41.75 22.1463 44.1333 26.1268C46.5167 30.1073 48.9 26.1268 51.3917 25.1317C53.775 24.1366 56.1583 26.1268 58.5417 30.1073C61.0333 34.0878 63.4167 40.0585 65.8 40.0585C68.1833 40.0585 70.5667 34.0878 73.0583 27.122C75.4417 20.1561 77.825 12.1951 80.2083 7.21951C82.7 2.2439 85.0833 0.253659 87.4666 1.24878C89.85 2.2439 92.2333 6.22439 94.725 10.2049C97.1083 14.1854 99.4916 18.1659 101.875 19.161C104.367 20.1561 106.75 18.1659 109.133 22.1463C111.517 26.1268 113.9 36.0781 116.392 33.0927C118.775 30.1073 121.158 14.1854 123.542 12.1951C126.033 10.2049 128.417 22.1463 129.608 28.1171L130.8 34.0878V52H129.608C128.417 52 126.033 52 123.542 52C121.158 52 118.775 52 116.392 52C113.9 52 111.517 52 109.133 52C106.75 52 104.367 52 101.875 52C99.4916 52 97.1083 52 94.725 52C92.2333 52 89.85 52 87.4666 52C85.0833 52 82.7 52 80.2083 52C77.825 52 75.4417 52 73.0583 52C70.5667 52 68.1833 52 65.8 52C63.4167 52 61.0333 52 58.5417 52C56.1583 52 53.775 52 51.3917 52C48.9 52 46.5167 52 44.1333 52C41.75 52 39.3666 52 36.875 52C34.4916 52 32.1083 52 29.725 52C27.2333 52 24.85 52 22.4667 52C20.0833 52 17.7 52 15.2083 52C12.825 52 10.4417 52 8.05832 52C5.56665 52 3.18332 52 1.99165 52H0.799988V28.1171Z" fill="url(#paint0_linear_1807_16675)"/>
<path d="M0.799988 28.0764L1.99165 27.0828C3.18332 26.0892 5.56665 24.1019 8.05832 22.1146C10.4417 20.1274 12.825 18.1401 15.2083 18.1401C17.7 18.1401 20.0833 20.1274 22.4667 21.121C24.85 22.1147 27.2333 22.1146 29.725 18.1401C32.1083 14.1656 34.4917 6.21656 36.875 8.20382C39.3667 10.1911 41.75 22.1147 44.1333 26.0892C46.5167 30.0637 48.9 26.0892 51.3917 25.0955C53.775 24.1019 56.1583 26.0892 58.5417 30.0637C61.0333 34.0382 63.4167 40 65.8 40C68.1833 40 70.5667 34.0382 73.0583 27.0828C75.4417 20.1274 77.825 12.1783 80.2083 7.21019C82.7 2.24204 85.0833 0.254777 87.4666 1.24841C89.85 2.24204 92.2333 6.21656 94.725 10.1911C97.1083 14.1656 99.4916 18.1401 101.875 19.1338C104.367 20.1274 106.75 18.1401 109.133 22.1146C111.517 26.0892 113.9 36.0255 116.392 33.0446C118.775 30.0637 121.158 14.1656 123.542 12.1783C126.033 10.1911 128.417 22.1147 129.608 28.0764L130.8 34.0382" stroke="#FF6262"/>
<defs>
<linearGradient id="paint0_linear_1807_16675" x1="65.8" y1="-59.5" x2="65.8" y2="52" gradientUnits="userSpaceOnUse">
<stop stop-color="#FF003B"/>
<stop offset="1" stop-color="#FF003B" stop-opacity="0"/>
</linearGradient>
</defs>
</svg>
