<svg width="51" height="50" viewBox="0 0 51 50" fill="none" xmlns="http://www.w3.org/2000/svg">
<g clip-path="url(#clip0_1819_15857)">
<path fill-rule="evenodd" clip-rule="evenodd" d="M3.77611 4.34562C2.38889 4.34562 1.25957 5.47482 1.25957 6.86216L1.25968 32.2773C1.25968 33.6645 2.38877 34.7937 3.77611 34.7937H46.5611C47.9483 34.7937 49.0764 33.6645 49.0764 32.2773L49.0765 6.86216C49.0765 5.47482 47.9483 4.34562 46.561 4.34562H3.77611ZM46.5611 35.8854H3.77611C1.78726 35.8854 0.167969 34.2672 0.167969 32.2773L0.168084 6.86216C0.168084 4.8732 1.78726 3.25402 3.77611 3.25402L46.5611 3.25391C48.5498 3.25391 50.168 4.87331 50.168 6.86216L50.1681 32.2773C50.1681 34.2672 48.5498 35.8854 46.5611 35.8854Z" fill="white"/>
<path fill-rule="evenodd" clip-rule="evenodd" d="M21.428 42.5024C21.1266 42.5024 20.8821 42.2579 20.8821 41.9566L20.8822 35.3395C20.8822 35.0382 21.1266 34.7937 21.4279 34.7937C21.7294 34.7937 21.9738 35.0382 21.9738 35.3395V41.9566C21.9738 42.2579 21.7293 42.5024 21.428 42.5024ZM28.9082 42.5024C28.6068 42.5024 28.3621 42.2579 28.3621 41.9566L28.3623 35.3395C28.3623 35.0382 28.6067 34.7937 28.9081 34.7937C29.2095 34.7937 29.4539 35.0382 29.4539 35.3395V41.9566C29.4539 42.2579 29.2093 42.5024 28.9082 42.5024Z" fill="white"/>
<path fill-rule="evenodd" clip-rule="evenodd" d="M12.7675 45.6547H37.5685V44.0786C37.5685 43.2098 36.8623 42.5025 35.9924 42.5025H14.3437C13.4749 42.5025 12.7675 43.2098 12.7675 44.0786V45.6547ZM38.1143 46.7463H12.2217C11.9203 46.7463 11.6758 46.5019 11.6758 46.2005V44.0786C11.6758 42.6071 12.8732 41.4109 14.3435 41.4109H35.9924C37.4639 41.4109 38.6601 42.6071 38.6601 44.0786L38.6602 46.2005C38.6602 46.5019 38.4156 46.7463 38.1143 46.7463Z" fill="white"/>
<path fill-rule="evenodd" clip-rule="evenodd" d="M49.6223 31.1026H0.713769C0.412495 31.1026 0.167969 30.8582 0.167969 30.5568C0.168084 30.2544 0.412379 30.011 0.713769 30.011H49.6223C49.9247 30.011 50.168 30.2544 50.168 30.5568C50.1681 30.8582 49.9247 31.1026 49.6223 31.1026Z" fill="white"/>
</g>
<defs>
<clipPath id="clip0_1819_15857">
<rect width="50" height="50" fill="white" transform="translate(0.167969)"/>
</clipPath>
</defs>
</svg>
