<svg width="50" height="51" viewBox="0 0 50 51" fill="none" xmlns="http://www.w3.org/2000/svg">
<rect x="0.5" y="1" width="49" height="49" rx="5.5" stroke="#76E234"/>
<path d="M13.46 13.8989C13.17 14.2089 13 14.6889 13 15.2989V37.4189C13 38.0389 13.17 38.5189 13.46 38.8189L13.53 38.8889L25.92 26.5089V26.3589V26.2089L13.53 13.8289L13.46 13.8989Z" fill="#F4F6F9"/>
<path d="M30.4877 30.6389L26.3577 26.5089V26.3589V26.2089L30.4877 22.0789L30.5777 22.1289L35.4677 24.9089C36.8677 25.6989 36.8677 26.9989 35.4677 27.7989L30.5777 30.5789L30.4877 30.6389Z" fill="#F4F6F9"/>
<path d="M30.14 31.5789L25.92 27.3589L13.46 39.8189C13.92 40.3089 14.68 40.3689 15.54 39.8789L30.14 31.5789Z" fill="#F4F6F9"/>
<path d="M30.1399 21.1389L15.53 12.8389C14.67 12.3489 13.91 12.4089 13.45 12.8989L25.92 25.3589L30.1399 21.1389Z" fill="#F4F6F9"/>
</svg>
