<svg width="136" height="40" viewBox="0 0 136 40" fill="none" xmlns="http://www.w3.org/2000/svg">
<path d="M130.168 0.8C132.488 0.8 134.368 2.68 134.368 5V35C134.368 37.32 132.488 39.2 130.168 39.2H5.16797C2.84797 39.2 0.967969 37.32 0.967969 35V5C0.967969 2.68 2.84797 0.8 5.16797 0.8H130.168ZM130.168 0H5.16797C2.41797 0 0.167969 2.25 0.167969 5V35C0.167969 37.75 2.41797 40 5.16797 40H130.168C132.918 40 135.168 37.75 135.168 35V5C135.168 2.25 132.918 0 130.168 0Z" fill="#A6A6A6"/>
<path d="M47.588 10.24C47.588 11.08 47.338 11.75 46.838 12.24C46.278 12.83 45.538 13.13 44.638 13.13C43.768 13.13 43.038 12.83 42.428 12.23C41.818 11.63 41.518 10.88 41.518 10C41.518 9.11 41.818 8.37 42.428 7.77C43.038 7.17 43.768 6.87 44.638 6.87C45.068 6.87 45.478 6.95 45.868 7.12C46.258 7.29 46.568 7.51 46.808 7.79L46.278 8.32C45.878 7.85 45.338 7.61 44.638 7.61C44.008 7.61 43.458 7.83 42.998 8.28C42.538 8.72 42.308 9.3 42.308 10.01C42.308 10.72 42.538 11.3 42.998 11.74C43.458 12.18 44.008 12.41 44.638 12.41C45.308 12.41 45.868 12.19 46.318 11.74C46.608 11.45 46.778 11.04 46.818 10.52H44.638V9.8H47.548C47.568 9.95 47.588 10.1 47.588 10.24Z" fill="url(#paint0_linear_1822_15938)"/>
<path d="M52.198 7.74H49.468V9.64H51.928V10.36H49.468V12.26H52.198V13H48.698V7H52.198V7.74Z" fill="url(#paint1_linear_1822_15938)"/>
<path d="M55.448 13H54.678V7.74H52.998V7H57.118V7.74H55.438V13H55.448Z" fill="url(#paint2_linear_1822_15938)"/>
<path d="M60.108 13V7H60.878V13H60.108Z" fill="url(#paint3_linear_1822_15938)"/>
<path d="M64.298 13H63.528V7.74H61.848V7H65.968V7.74H64.288V13H64.298Z" fill="url(#paint4_linear_1822_15938)"/>
<path d="M73.778 12.22C73.188 12.83 72.458 13.13 71.578 13.13C70.698 13.13 69.968 12.83 69.378 12.22C68.788 11.61 68.498 10.87 68.498 10C68.498 9.13 68.788 8.38 69.378 7.78C69.968 7.17 70.698 6.87 71.578 6.87C72.448 6.87 73.178 7.17 73.778 7.78C74.368 8.39 74.668 9.13 74.668 10C74.658 10.88 74.368 11.62 73.778 12.22ZM69.948 11.72C70.388 12.17 70.938 12.39 71.578 12.39C72.218 12.39 72.768 12.17 73.208 11.72C73.648 11.27 73.878 10.7 73.878 10C73.878 9.3 73.658 8.73 73.208 8.28C72.768 7.83 72.218 7.61 71.578 7.61C70.938 7.61 70.388 7.83 69.948 8.28C69.508 8.73 69.278 9.3 69.278 10C69.278 10.7 69.508 11.27 69.948 11.72Z" fill="url(#paint5_linear_1822_15938)"/>
<path d="M75.748 13V7H76.688L79.608 11.67H79.638L79.608 10.51V7H80.378V13H79.578L76.528 8.11H76.498L76.528 9.27V13H75.748Z" fill="url(#paint6_linear_1822_15938)"/>
<path d="M68.308 21.75C65.958 21.75 64.038 23.54 64.038 26C64.038 28.45 65.958 30.25 68.308 30.25C70.658 30.25 72.578 28.45 72.578 26C72.578 23.54 70.658 21.75 68.308 21.75ZM68.308 28.58C67.018 28.58 65.908 27.52 65.908 26C65.908 24.47 67.018 23.42 68.308 23.42C69.598 23.42 70.708 24.47 70.708 26C70.708 27.52 69.588 28.58 68.308 28.58ZM58.988 21.75C56.638 21.75 54.718 23.54 54.718 26C54.718 28.45 56.638 30.25 58.988 30.25C61.338 30.25 63.258 28.45 63.258 26C63.258 23.54 61.338 21.75 58.988 21.75ZM58.988 28.58C57.698 28.58 56.588 27.52 56.588 26C56.588 24.47 57.698 23.42 58.988 23.42C60.278 23.42 61.388 24.47 61.388 26C61.388 27.52 60.278 28.58 58.988 28.58ZM47.908 23.06V24.86H52.228C52.098 25.87 51.758 26.62 51.248 27.13C50.618 27.76 49.638 28.45 47.918 28.45C45.258 28.45 43.178 26.31 43.178 23.65C43.178 20.99 45.258 18.85 47.918 18.85C49.348 18.85 50.398 19.41 51.168 20.14L52.438 18.87C51.358 17.84 49.928 17.05 47.908 17.05C44.268 17.05 41.208 20.01 41.208 23.66C41.208 27.3 44.268 30.27 47.908 30.27C49.878 30.27 51.358 29.63 52.518 28.42C53.708 27.23 54.078 25.55 54.078 24.2C54.078 23.78 54.048 23.39 53.978 23.07H47.908V23.06ZM93.218 24.46C92.868 23.51 91.788 21.75 89.578 21.75C87.388 21.75 85.568 23.47 85.568 26C85.568 28.38 87.368 30.25 89.788 30.25C91.738 30.25 92.868 29.06 93.328 28.37L91.878 27.4C91.398 28.11 90.738 28.58 89.788 28.58C88.838 28.58 88.158 28.14 87.728 27.29L93.418 24.94L93.218 24.46ZM87.418 25.88C87.368 24.24 88.688 23.4 89.638 23.4C90.378 23.4 91.008 23.77 91.218 24.3L87.418 25.88ZM82.798 30H84.668V17.5H82.798V30ZM79.738 22.7H79.668C79.248 22.2 78.448 21.75 77.428 21.75C75.298 21.75 73.348 23.62 73.348 26.02C73.348 28.4 75.298 30.26 77.428 30.26C78.438 30.26 79.248 29.81 79.668 29.29H79.728V29.9C79.728 31.53 78.858 32.4 77.458 32.4C76.318 32.4 75.608 31.58 75.318 30.89L73.688 31.57C74.158 32.7 75.398 34.08 77.458 34.08C79.648 34.08 81.498 32.79 81.498 29.65V22.01H79.728V22.7H79.738ZM77.588 28.58C76.298 28.58 75.218 27.5 75.218 26.02C75.218 24.52 76.298 23.43 77.588 23.43C78.858 23.43 79.858 24.53 79.858 26.02C79.868 27.5 78.868 28.58 77.588 28.58ZM101.978 17.5H97.508V30H99.378V25.26H101.988C104.058 25.26 106.088 23.76 106.088 21.38C106.088 19 104.038 17.5 101.978 17.5ZM102.018 23.52H99.368V19.23H102.018C103.418 19.23 104.208 20.39 104.208 21.37C104.208 22.35 103.418 23.52 102.018 23.52ZM113.558 21.73C112.208 21.73 110.808 22.33 110.228 23.64L111.888 24.33C112.238 23.64 112.898 23.41 113.588 23.41C114.548 23.41 115.538 23.99 115.548 25.02V25.15C115.208 24.96 114.488 24.67 113.598 24.67C111.808 24.67 109.998 25.65 109.998 27.48C109.998 29.15 111.458 30.23 113.098 30.23C114.348 30.23 115.048 29.67 115.478 29.01H115.538V29.98H117.338V25.19C117.348 22.97 115.688 21.73 113.558 21.73ZM113.328 28.58C112.718 28.58 111.868 28.27 111.868 27.52C111.868 26.56 112.928 26.19 113.848 26.19C114.668 26.19 115.058 26.37 115.548 26.61C115.408 27.76 114.408 28.58 113.328 28.58ZM123.908 22L121.768 27.42H121.708L119.488 22H117.478L120.808 29.58L118.908 33.79H120.858L125.988 22H123.908ZM107.108 30H108.978V17.5H107.108V30Z" fill="url(#paint7_linear_1822_15938)"/>
<path d="M10.608 7.54C10.318 7.85 10.148 8.33 10.148 8.94V31.06C10.148 31.68 10.318 32.16 10.608 32.46L10.678 32.53L23.068 20.15V19.85L10.678 7.47L10.608 7.54Z" fill="url(#paint8_linear_1822_15938)"/>
<path d="M27.6356 24.28L23.5056 20.15V19.85L27.6356 15.72L27.7256 15.77L32.6156 18.55C34.0156 19.34 34.0156 20.64 32.6156 21.44L27.7256 24.22L27.6356 24.28Z" fill="url(#paint9_linear_1822_15938)"/>
<path d="M27.288 25.22L23.068 21L10.608 33.46C11.068 33.95 11.828 34.01 12.688 33.52L27.288 25.22Z" fill="url(#paint10_linear_1822_15938)"/>
<path d="M27.288 14.78L12.678 6.48C11.818 5.99 11.058 6.05 10.598 6.54L23.068 19L27.288 14.78Z" fill="url(#paint11_linear_1822_15938)"/>
<path d="M130.168 0.8C132.488 0.8 134.368 2.68 134.368 5V35C134.368 37.32 132.488 39.2 130.168 39.2H5.16797C2.84797 39.2 0.967969 37.32 0.967969 35V5C0.967969 2.68 2.84797 0.8 5.16797 0.8H130.168ZM130.168 0H5.16797C2.41797 0 0.167969 2.25 0.167969 5V35C0.167969 37.75 2.41797 40 5.16797 40H130.168C132.918 40 135.168 37.75 135.168 35V5C135.168 2.25 132.918 0 130.168 0Z" fill="url(#paint12_linear_1822_15938)"/>
<defs>
<linearGradient id="paint0_linear_1822_15938" x1="0.167969" y1="0" x2="135.168" y2="40" gradientUnits="userSpaceOnUse">
<stop stop-color="#FF82D4"/>
<stop offset="1" stop-color="#1B1378"/>
</linearGradient>
<linearGradient id="paint1_linear_1822_15938" x1="0.167969" y1="0" x2="135.168" y2="40" gradientUnits="userSpaceOnUse">
<stop stop-color="#FF82D4"/>
<stop offset="1" stop-color="#1B1378"/>
</linearGradient>
<linearGradient id="paint2_linear_1822_15938" x1="0.167969" y1="0" x2="135.168" y2="40" gradientUnits="userSpaceOnUse">
<stop stop-color="#FF82D4"/>
<stop offset="1" stop-color="#1B1378"/>
</linearGradient>
<linearGradient id="paint3_linear_1822_15938" x1="0.167969" y1="0" x2="135.168" y2="40" gradientUnits="userSpaceOnUse">
<stop stop-color="#FF82D4"/>
<stop offset="1" stop-color="#1B1378"/>
</linearGradient>
<linearGradient id="paint4_linear_1822_15938" x1="0.167969" y1="0" x2="135.168" y2="40" gradientUnits="userSpaceOnUse">
<stop stop-color="#FF82D4"/>
<stop offset="1" stop-color="#1B1378"/>
</linearGradient>
<linearGradient id="paint5_linear_1822_15938" x1="0.167969" y1="0" x2="135.168" y2="40" gradientUnits="userSpaceOnUse">
<stop stop-color="#FF82D4"/>
<stop offset="1" stop-color="#1B1378"/>
</linearGradient>
<linearGradient id="paint6_linear_1822_15938" x1="0.167969" y1="0" x2="135.168" y2="40" gradientUnits="userSpaceOnUse">
<stop stop-color="#FF82D4"/>
<stop offset="1" stop-color="#1B1378"/>
</linearGradient>
<linearGradient id="paint7_linear_1822_15938" x1="0.167969" y1="0" x2="135.168" y2="40" gradientUnits="userSpaceOnUse">
<stop stop-color="#FF82D4"/>
<stop offset="1" stop-color="#1B1378"/>
</linearGradient>
<linearGradient id="paint8_linear_1822_15938" x1="0.167969" y1="0" x2="135.168" y2="40" gradientUnits="userSpaceOnUse">
<stop stop-color="#FF82D4"/>
<stop offset="1" stop-color="#1B1378"/>
</linearGradient>
<linearGradient id="paint9_linear_1822_15938" x1="0.167969" y1="0" x2="135.168" y2="40" gradientUnits="userSpaceOnUse">
<stop stop-color="#FF82D4"/>
<stop offset="1" stop-color="#1B1378"/>
</linearGradient>
<linearGradient id="paint10_linear_1822_15938" x1="0.167969" y1="0" x2="135.168" y2="40" gradientUnits="userSpaceOnUse">
<stop stop-color="#FF82D4"/>
<stop offset="1" stop-color="#1B1378"/>
</linearGradient>
<linearGradient id="paint11_linear_1822_15938" x1="0.167969" y1="0" x2="135.168" y2="40" gradientUnits="userSpaceOnUse">
<stop stop-color="#FF82D4"/>
<stop offset="1" stop-color="#1B1378"/>
</linearGradient>
<linearGradient id="paint12_linear_1822_15938" x1="0.167969" y1="0" x2="135.168" y2="40" gradientUnits="userSpaceOnUse">
<stop stop-color="#FF82D4"/>
<stop offset="1" stop-color="#1B1378"/>
</linearGradient>
</defs>
</svg>
