<svg width="51" height="51" viewBox="0 0 51 51" fill="none" xmlns="http://www.w3.org/2000/svg">
<g clip-path="url(#clip0_1820_15690)">
<path d="M35.5436 0.5H14.7924C12.946 0.5 11.4442 2.00183 11.4442 3.84814V47.1519C11.4442 48.998 12.946 50.5 14.7924 50.5H35.5436C37.3898 50.5 38.8917 48.9982 38.8917 47.1519V3.84814C38.8917 2.00183 37.3899 0.5 35.5436 0.5ZM37.6411 47.1519C37.6411 48.3087 36.6998 49.25 35.543 49.25H14.7924C13.6355 49.25 12.6942 48.3087 12.6942 47.1519V41.5038H37.6411V47.1519ZM37.6411 40.2538H12.6942V7.4281H37.6411V40.2538ZM37.6411 6.1781H12.6942V3.84814C12.6942 2.69128 13.6355 1.75 14.7924 1.75H35.543C36.6998 1.75 37.6411 2.69128 37.6411 3.84814V6.1781Z" fill="white"/>
<path d="M25.168 42.9119C23.7493 42.9119 22.5948 44.0663 22.5948 45.485C22.5948 46.9037 23.7493 48.0575 25.168 48.0575C26.5867 48.0575 27.7411 46.9031 27.7411 45.4844C27.7411 44.0657 26.5867 42.9119 25.168 42.9119ZM25.168 46.8081C24.4386 46.8081 23.8448 46.2144 23.8448 45.485C23.8448 44.7556 24.4386 44.1619 25.168 44.1619C25.8973 44.1619 26.4911 44.7556 26.4911 45.485C26.4911 46.2144 25.8973 46.8081 25.168 46.8081Z" fill="white"/>
</g>
<defs>
<clipPath id="clip0_1820_15690">
<rect width="50" height="50" fill="white" transform="translate(0.167969 0.5)"/>
</clipPath>
</defs>
</svg>
