<svg width="25" height="25" viewBox="0 0 25 25" fill="none" xmlns="http://www.w3.org/2000/svg">
<path fill-rule="evenodd" clip-rule="evenodd" d="M6.63538 2.99909C7.59998 2.92211 8.51572 2.5428 9.25223 1.91516C10.9709 0.450482 13.4988 0.450482 15.2175 1.91516C15.954 2.5428 16.8697 2.92211 17.8344 2.99909C20.0853 3.17871 21.8728 4.96619 22.0524 7.21716C22.1295 8.18177 22.5087 9.0975 23.1364 9.83402C24.601 11.5527 24.601 14.0805 23.1364 15.7992C22.5087 16.5357 22.1295 17.4515 22.0524 18.4161C21.8728 20.667 20.0853 22.4546 17.8344 22.6341C16.8697 22.7113 15.954 23.0905 15.2175 23.7182C13.4988 25.1828 10.9709 25.1828 9.25223 23.7182C8.51572 23.0905 7.59998 22.7113 6.63538 22.6341C4.3844 22.4546 2.59692 20.667 2.4173 18.4161C2.34032 17.4515 1.96101 16.5357 1.33337 15.7992C-0.131306 14.0805 -0.131306 11.5527 1.33337 9.83402C1.96101 9.0975 2.34032 8.18177 2.4173 7.21716C2.59692 4.96619 4.3844 3.17871 6.63538 2.99909ZM17.7955 10.8773C18.3813 10.2915 18.3813 9.34178 17.7955 8.75598C17.2098 8.1702 16.26 8.1702 15.6742 8.75598L10.7349 13.6953L8.79553 11.756C8.20973 11.1702 7.25999 11.1702 6.6742 11.756C6.08842 12.3418 6.08842 13.2915 6.6742 13.8773L9.6742 16.8773C10.26 17.463 11.2097 17.463 11.7955 16.8773L17.7955 10.8773Z" fill="#D895FF"/>
</svg>
